<svg width="145" height="32" viewBox="0 0 145 32" fill="none" xmlns="http://www.w3.org/2000/svg">
<path fill-rule="evenodd" clip-rule="evenodd" d="M29.043 26.0963L27.2815 31.4237H26.1215L24.7896 26.9556L23.4578 31.4237H22.3407L20.5793 26.0963H21.5674L22.8993 30.5644L24.2311 26.0963H25.3481L26.68 30.5644L28.0548 26.0963H29.043Z" fill="black"/>
<path fill-rule="evenodd" clip-rule="evenodd" d="M36.6474 28.76C36.6474 29.6193 36.3037 30.3496 35.5733 30.8652C34.9289 31.3378 34.1556 31.5526 33.2104 31.5526C32.2652 31.5526 31.4918 31.2948 30.8474 30.8222C30.117 30.2637 29.7733 29.5763 29.7733 28.717C29.7733 27.8578 30.117 27.1704 30.8474 26.6119C31.4918 26.1393 32.2652 25.8815 33.2104 25.8815C34.1556 25.8815 34.9289 26.1393 35.5304 26.6119C36.2607 27.1704 36.6474 27.9007 36.6474 28.76ZM35.7022 28.76C35.7022 28.1156 35.4444 27.643 34.8859 27.2563C34.4133 26.9126 33.8548 26.7407 33.1674 26.7407C32.437 26.7407 31.8356 26.9126 31.363 27.2993C30.8904 27.6859 30.6756 28.1585 30.6756 28.76C30.6756 29.3615 30.8904 29.8341 31.363 30.2207C31.8356 30.6074 32.437 30.7793 33.2104 30.7793C33.9837 30.7793 34.5852 30.6074 35.0148 30.2207C35.4874 29.8341 35.7022 29.3615 35.7022 28.76Z" fill="black"/>
<path fill-rule="evenodd" clip-rule="evenodd" d="M44.2089 31.4237H43.1778L41.717 29.4044H39.0104V31.4237H38.1081V26.0963H42.3185C42.877 26.0963 43.3067 26.2682 43.6504 26.5689C43.9511 26.8696 44.123 27.2563 44.123 27.7719C44.123 28.2444 43.9941 28.5881 43.7363 28.8459C43.4785 29.1037 43.1778 29.2756 42.7481 29.3185L44.2089 31.4237ZM42.2326 28.5881C42.92 28.5881 43.2637 28.3304 43.2637 27.7719C43.2637 27.1704 42.877 26.9126 42.1467 26.9126H39.0533V28.5881H42.2326Z" fill="black"/>
<path fill-rule="evenodd" clip-rule="evenodd" d="M51.7704 31.4237H50.6104L48.0326 28.6311L46.443 29.7911V31.4237H45.5837V26.0963H46.443V28.8459L50.1807 26.0963H51.4696L48.72 28.1156L51.7704 31.4237Z" fill="black"/>
<path d="M55.7659 26.0963H54.8637V31.4237H55.7659V26.0963Z" fill="black"/>
<path fill-rule="evenodd" clip-rule="evenodd" d="M63.4993 31.4237H62.4252L58.3437 27.0415V31.4237H57.4415V26.0963H58.5585L62.64 30.4785V26.0963H63.4993V31.4237Z" fill="black"/>
<path fill-rule="evenodd" clip-rule="evenodd" d="M71.7481 26.0963C72.3067 26.0963 72.7363 26.2682 73.037 26.5689C73.3378 26.8696 73.5096 27.2563 73.5096 27.7719C73.5096 28.2874 73.3378 28.717 72.9941 28.9748C72.6504 29.2756 72.1778 29.4044 71.5333 29.4044H68.3541V31.4237H67.4519V26.0963H71.7481ZM71.5763 28.5881C72.2637 28.5881 72.6074 28.3304 72.6074 27.7719C72.6074 27.1704 72.2637 26.9126 71.5333 26.9126H68.397V28.5881H71.5763Z" fill="black"/>
<path fill-rule="evenodd" clip-rule="evenodd" d="M80.5556 31.4237H79.5244L78.0637 29.4044H75.357V31.4237H74.4548V26.0963H78.6652C79.2237 26.0963 79.6533 26.2682 79.997 26.5689C80.2978 26.8696 80.4696 27.2563 80.4696 27.7719C80.4696 28.2444 80.3407 28.5881 80.083 28.8459C79.8252 29.1037 79.5244 29.2756 79.0948 29.3185L80.5556 31.4237ZM78.5793 28.5881C79.2667 28.5881 79.6104 28.3304 79.6104 27.7719C79.6104 27.1704 79.2237 26.9126 78.4933 26.9126H75.4V28.5881H78.5793Z" fill="black"/>
<path fill-rule="evenodd" clip-rule="evenodd" d="M88.5037 28.76C88.5037 29.6193 88.16 30.3496 87.4296 30.8652C86.7852 31.3378 86.0119 31.5526 85.0667 31.5526C84.1215 31.5526 83.3481 31.2948 82.7037 30.8222C81.9733 30.2637 81.6296 29.5763 81.6296 28.717C81.6296 27.8578 81.9733 27.1704 82.7037 26.6119C83.3481 26.1393 84.1215 25.8815 85.0667 25.8815C86.0119 25.8815 86.7852 26.1393 87.3867 26.6119C88.16 27.1704 88.5037 27.9007 88.5037 28.76ZM87.6015 28.76C87.6015 28.1156 87.3437 27.643 86.7852 27.2563C86.3126 26.9126 85.7541 26.7407 85.0667 26.7407C84.3363 26.7407 83.7348 26.9126 83.2622 27.2993C82.7896 27.6859 82.5748 28.1585 82.5748 28.76C82.5748 29.3615 82.7896 29.8341 83.2622 30.2207C83.7348 30.6074 84.3363 30.7793 85.0667 30.7793C85.84 30.7793 86.4415 30.6074 86.8711 30.2207C87.3437 29.8341 87.6015 29.3615 87.6015 28.76Z" fill="black"/>
<path fill-rule="evenodd" clip-rule="evenodd" d="M96.5378 28.6741C96.5378 29.5333 96.237 30.2637 95.5926 30.7793C94.9911 31.2948 94.1319 31.5956 93.1437 31.5956C92.1985 31.5956 91.4252 31.3378 90.7807 30.8652C90.0504 30.3067 89.7067 29.6193 89.7067 28.76C89.7067 27.9007 90.0504 27.2133 90.7807 26.6548C91.4252 26.1822 92.1985 25.9245 93.1867 25.9245C94.3467 25.9245 95.3348 26.3541 96.0652 27.2133L95.2489 27.643C94.6904 27.0415 94.003 26.7407 93.1007 26.7407C92.4133 26.7407 91.8548 26.9126 91.3822 27.2563C90.8667 27.643 90.5659 28.1585 90.5659 28.76C90.5659 29.3615 90.7807 29.8341 91.2533 30.2207C91.7259 30.6074 92.3274 30.7793 93.0578 30.7793C94.2178 30.7793 94.9911 30.3067 95.3348 29.4045H92.843V28.5882H96.4089V28.6741H96.5378Z" fill="black"/>
<path fill-rule="evenodd" clip-rule="evenodd" d="M104.099 31.4237H103.068L101.607 29.4044H98.9007V31.4237H97.9985V26.0963H102.209C102.767 26.0963 103.197 26.2682 103.541 26.5689C103.841 26.8696 104.013 27.2563 104.013 27.7719C104.013 28.2444 103.884 28.5881 103.627 28.8459C103.369 29.1037 103.068 29.2756 102.639 29.3185L104.099 31.4237ZM102.123 28.5881C102.81 28.5881 103.154 28.3304 103.154 27.7719C103.154 27.1704 102.767 26.9126 102.037 26.9126H98.9437V28.5881H102.123Z" fill="black"/>
<path fill-rule="evenodd" clip-rule="evenodd" d="M111.059 31.4237H105.474V26.0963H110.844V26.9126H106.376V28.2444H109.47V29.0607H106.376V30.6074H111.059V31.4237Z" fill="black"/>
<path fill-rule="evenodd" clip-rule="evenodd" d="M116.816 27.3422C116.043 26.9556 115.227 26.7407 114.41 26.7407C113.852 26.7407 113.465 26.8267 113.164 26.9126C112.864 27.0415 112.735 27.2133 112.735 27.4282C112.735 27.643 112.907 27.8148 113.207 27.9437C113.422 28.0296 113.809 28.0726 114.281 28.1156C115.012 28.1585 115.484 28.2015 115.742 28.2445C116.43 28.3304 116.902 28.5022 117.203 28.76C117.504 29.0178 117.676 29.3615 117.676 29.7911C117.676 30.3496 117.418 30.7793 116.945 31.123C116.43 31.4237 115.742 31.5956 114.797 31.5956C113.422 31.5956 112.391 31.2948 111.618 30.6933L112.09 30.0489C112.907 30.5645 113.809 30.8222 114.797 30.8222C115.441 30.8222 115.914 30.7363 116.258 30.5644C116.601 30.3926 116.73 30.1778 116.73 29.877C116.73 29.5333 116.516 29.3185 116.086 29.1896C115.871 29.1467 115.27 29.0607 114.239 29.0178C113.379 28.9748 112.735 28.8459 112.391 28.6741C111.961 28.4593 111.79 28.1156 111.79 27.643C111.79 27.1274 112.004 26.7407 112.477 26.44C112.95 26.1393 113.594 26.0104 114.453 26.0104C115.613 26.0104 116.559 26.2682 117.332 26.7837L116.816 27.3422Z" fill="black"/>
<path fill-rule="evenodd" clip-rule="evenodd" d="M123.561 27.3422C122.788 26.9556 121.972 26.7407 121.156 26.7407C120.597 26.7407 120.21 26.8267 119.91 26.9126C119.609 27.0415 119.48 27.2133 119.48 27.4282C119.48 27.643 119.652 27.8148 119.953 27.9437C120.167 28.0296 120.554 28.0726 121.027 28.1156C121.757 28.1585 122.23 28.2015 122.487 28.2445C123.175 28.3304 123.647 28.5022 123.948 28.76C124.249 29.0178 124.421 29.3615 124.421 29.7911C124.421 30.3496 124.163 30.7793 123.69 31.123C123.175 31.4237 122.487 31.5956 121.542 31.5956C120.167 31.5956 119.136 31.2948 118.363 30.6933L118.836 30.0489C119.652 30.5645 120.554 30.8222 121.542 30.8222C122.187 30.8222 122.659 30.7363 123.003 30.5644C123.347 30.3926 123.476 30.1778 123.476 29.877C123.476 29.5333 123.261 29.3185 122.831 29.1896C122.616 29.1467 122.015 29.0607 120.984 29.0178C120.124 28.9748 119.48 28.8459 119.136 28.6741C118.707 28.4593 118.535 28.1156 118.535 27.643C118.535 27.1274 118.75 26.7407 119.222 26.44C119.695 26.1393 120.339 26.0104 121.199 26.0104C122.359 26.0104 123.304 26.2682 124.077 26.7837L123.561 27.3422Z" fill="black"/>
<path fill-rule="evenodd" clip-rule="evenodd" d="M142.594 17.117H143.024C143.239 17.117 143.367 17.203 143.367 17.3748C143.367 17.5896 143.196 17.6756 142.895 17.6756H142.551V17.117H142.594ZM142.25 18.7926H142.551V17.9333H142.766L143.324 18.7926H143.711L143.153 17.9333C143.41 17.8904 143.668 17.7615 143.668 17.3748C143.668 16.9882 143.453 16.8163 142.981 16.8163H142.25V18.7926ZM144.227 17.8044C144.227 18.5778 143.625 19.1793 142.895 19.1793C142.164 19.1793 141.563 18.5778 141.563 17.8044C141.563 17.0311 142.164 16.4296 142.895 16.4296C143.625 16.4296 144.227 17.0741 144.227 17.8044ZM141.219 17.8044C141.219 18.7067 141.95 19.48 142.895 19.48C143.797 19.48 144.57 18.7496 144.57 17.8044C144.57 16.8593 143.84 16.1289 142.895 16.1289C141.993 16.1289 141.219 16.9022 141.219 17.8044Z" fill="black"/>
<path d="M14.8222 19.48H5.4563C5.4563 19.6089 0 19.0074 0 11.36C0 3.66963 5.4563 3.92741 5.4563 3.92741L14.7793 3.88445C14.7793 3.88445 15.8963 3.97037 15.8963 5.43111C15.8963 7.14963 14.7793 7.14963 14.7793 7.14963H6.18667C6.18667 7.14963 3.60889 7.02074 3.65185 10.9304C3.65185 13.3363 3.65185 12.1763 3.65185 12.1763C3.65185 12.1763 3.95259 16 6.40148 16.1719H14.8222C14.8222 16.1719 15.8963 16.2148 15.8963 17.8474C15.8963 19.48 14.8222 19.48 14.8222 19.48Z" fill="black"/>
<path d="M20.923 7.10667H32.9096C33.7689 7.10667 33.5541 7.88 33.5541 7.88C33.5541 7.88 33.5541 13.5511 33.5541 15.0978C33.5541 16.1719 32.2222 16.1719 32.2222 16.1719C32.2222 16.1719 25.9926 16.1719 23.3289 16.1719C21.3526 16.1719 21.3526 14.3674 21.3526 14.3674C21.3526 12.3911 23.3289 12.563 23.3289 12.563H31.5348C31.5348 12.563 32.5659 12.563 32.5659 10.9733C32.5659 9.29778 31.5348 9.25482 31.5348 9.25482C31.5348 9.25482 25.0044 9.25482 21.5244 9.25482C16.8844 9.29778 16.8844 14.3244 16.8844 14.3244C16.8844 19.437 21.4815 19.523 21.4815 19.523C21.4815 19.523 33.597 19.523 35.6593 19.523C37.6356 19.523 37.5067 17.5467 37.5067 17.5467C37.5067 17.5467 37.5067 9.59852 37.5067 6.67704C37.5067 3.75556 34.9719 3.92741 34.9719 3.92741H20.837C20.837 3.92741 19.5911 3.97037 19.5911 5.51704C19.6341 7.14963 20.923 7.10667 20.923 7.10667Z" fill="black"/>
<path d="M40.3852 5.2163C40.3852 5.2163 40.5141 3.88445 42.3615 3.88445C44.2089 3.88445 44.3378 5.17333 44.3378 5.17333V17.8904C44.3378 17.8904 44.3378 19.437 42.4474 19.437C40.4711 19.437 40.4281 17.8904 40.4281 17.8904V5.2163H40.3852Z" fill="black"/>
<path d="M45.24 4.70075C45.24 4.61483 45.3259 4.57186 45.3259 4.57186C45.3259 4.57186 47.0015 3.84149 49.7941 3.84149C52.5867 3.84149 55.8948 4.74371 55.9807 8.99705C55.9807 8.99705 55.8948 11.2311 55.2504 12.0045C55.2504 12.0045 55.2074 12.0904 55.1644 12.0904C54.9067 12.0474 52.8444 11.403 52.0711 11.0163C51.9852 10.9733 52.0281 10.8874 52.0281 10.8874C52.0281 10.8874 52.8444 8.91112 51.7274 7.49334C50.6533 6.11853 46.7867 6.46223 46.0133 6.89186C46.0133 6.89186 45.9274 6.93482 45.8844 6.80594C45.7126 6.63408 45.24 5.00149 45.24 4.70075C45.24 4.70075 45.24 5.00149 45.24 4.70075Z" fill="black"/>
<path d="M58.4726 1.7363C58.4726 1.7363 58.4726 0.404449 60.4919 0.404449C62.4252 0.404449 62.4681 1.7363 62.4681 1.7363V18.1052C62.4681 18.1052 62.4252 19.48 60.4919 19.48C58.4726 19.48 58.4726 18.1052 58.4726 18.1052V1.7363Z" fill="black"/>
<path d="M63.1126 4.95853C63.1126 4.95853 63.0696 4.91556 63.3704 4.74371C63.3704 4.74371 64.2296 4.09927 68.0104 3.92741C71.8341 3.92741 75.5289 5.2163 75.5289 11.1882C75.5289 11.1882 75.2281 15.5704 73.8533 18.8785C73.8533 18.8785 73.7674 19.3511 73.2089 19.3511C72.6504 19.3511 69.9867 19.3511 69.9867 19.3511C69.9867 19.3511 69.2133 19.523 69.5141 18.8356C69.8148 18.1482 71.5763 14.0237 71.5763 11.7037C71.5763 9.46964 70.9319 6.89186 66.5067 6.89186C66.5067 6.89186 65.003 6.89186 63.9289 7.40741C63.9289 7.40741 63.4563 7.66519 63.3704 7.23556C63.2415 6.89186 63.0267 5.51704 63.1126 4.95853C63.1126 4.95853 63.0267 5.51704 63.1126 4.95853Z" fill="black"/>
<path d="M120.726 1.90815C120.726 1.90815 120.726 0.404449 122.487 0.404449C124.206 0.404449 124.249 1.90815 124.249 1.90815V3.92741H128.76C128.76 3.92741 129.791 3.97038 129.791 5.51704C129.791 7.06371 128.803 7.10667 128.803 7.10667H124.249V17.8904C124.249 17.8904 124.206 19.48 122.487 19.48C120.769 19.48 120.726 17.8904 120.726 17.8904V7.14963H118.793C118.793 7.14963 117.804 7.14963 117.804 5.51704C117.804 3.92741 118.75 3.88445 118.75 3.88445L120.726 3.92741V1.90815Z" fill="black"/>
<path d="M135.161 1.90815C135.161 1.90815 135.161 0.404449 136.923 0.404449C138.641 0.404449 138.684 1.90815 138.684 1.90815V3.88445H143.625C143.625 3.88445 145 3.84149 145 5.51704C145 7.10667 143.668 7.14963 143.668 7.14963H138.684V17.9333C138.684 17.9333 138.641 19.523 136.923 19.523C135.204 19.523 135.161 17.9333 135.161 17.9333V7.1926H133.228C133.228 7.1926 132.24 7.14963 132.24 5.56001C132.24 3.97038 133.185 3.92741 133.185 3.92741L135.161 3.97038V1.90815Z" fill="black"/>
<path d="M100.361 5.2163C100.361 5.2163 100.49 3.88445 102.338 3.88445C104.185 3.88445 104.314 5.17333 104.314 5.17333V17.8904C104.314 17.8904 104.314 19.437 102.424 19.437C100.447 19.437 100.404 17.8904 100.404 17.8904V5.2163H100.361Z" fill="black"/>
<path d="M105.216 4.70075C105.216 4.61483 105.302 4.57186 105.302 4.57186C105.302 4.57186 106.978 3.84149 109.77 3.84149C112.563 3.84149 115.871 4.74371 115.957 8.99705C115.957 8.99705 115.871 11.2311 115.227 12.0045C115.227 12.0045 115.184 12.0904 115.141 12.0904C114.883 12.0474 112.821 11.403 112.047 11.0163C111.961 10.9733 112.004 10.8874 112.004 10.8874C112.004 10.8874 112.821 8.91112 111.704 7.49334C110.63 6.11853 106.763 6.46223 105.99 6.89186C105.99 6.89186 105.904 6.93482 105.861 6.80594C105.689 6.63408 105.216 5.00149 105.216 4.70075C105.216 4.70075 105.216 5.00149 105.216 4.70075Z" fill="black"/>
<path d="M80.8563 7.10666H92.843C93.7022 7.10666 93.4874 7.88 93.4874 7.88C93.4874 7.88 93.4874 13.5511 93.4874 15.0978C93.4874 16.1718 92.1556 16.1718 92.1556 16.1718C92.1556 16.1718 85.9259 16.1718 83.2622 16.1718C81.2859 16.1718 81.2859 14.3674 81.2859 14.3674C81.2859 12.3911 83.2622 12.563 83.2622 12.563H91.5111C91.5111 12.563 92.5422 12.563 92.5422 10.9733C92.5422 9.29778 91.5111 9.25481 91.5111 9.25481C91.5111 9.25481 84.9807 9.25481 81.5007 9.25481C76.8607 9.29778 76.8607 14.3244 76.8607 14.3244C76.8607 19.3511 81.4578 19.48 81.4578 19.48C81.4578 19.48 93.5304 19.48 95.6356 19.48C97.6119 19.48 97.5259 17.5037 97.5259 17.5037C97.5259 17.5037 97.5259 9.55555 97.5259 6.63407C97.5259 3.71259 94.9911 3.88444 94.9911 3.88444H80.8563C80.8563 3.88444 79.6104 3.9274 79.6104 5.47407C79.5674 7.14963 80.8563 7.10666 80.8563 7.10666Z" fill="black"/>
</svg>
