<svg xmlns="http://www.w3.org/2000/svg" fill="none" viewBox="0 0 176 19"><path fill="#000" fill-rule="evenodd" d="M13.964.602V3.01c0 .157-.106.261-.266.261H3.17v4.92h8.688c.16 0 .267.106.267.263v2.407c0 .157-.107.262-.267.262H3.171v7.275c0 .158-.106.262-.266.262H.266c-.16 0-.266-.105-.266-.262V.602C0 .445.106.34.266.34h13.432c.16 0 .266.105.266.262zm15.897 10.311a108.03 108.03 0 00-3.159-7.694h-.625a108.317 108.317 0 00-3.172 7.694h6.956zm5.583 7.747h-2.905c-.16 0-.266-.079-.306-.236a69.642 69.642 0 00-1.386-4.684h-8.915a62.28 62.28 0 00-1.372 4.684c-.04.157-.147.236-.306.236h-2.799c-.186 0-.293-.105-.24-.288 1.68-5.836 4.238-12.274 6.823-17.691.12-.25.266-.34.52-.34h3.784c.253 0 .4.09.52.34 2.611 5.404 5.13 11.855 6.822 17.691.053.183-.053.288-.24.288zm4.77-9.003C40.214 3.978 44.024 0 49.46 0h.4c3.411 0 6.05 1.701 7.449 4.161.093.157.066.288-.094.367l-2.345 1.138c-.16.079-.36.079-.466-.118-.986-1.675-2.465-2.564-4.65-2.564h-.4c-3.425 0-5.783 2.669-5.783 6.542 0 3.886 2.318 6.49 5.783 6.49h.4c2.238 0 3.544-.745 4.543-1.884.133-.144.28-.17.44-.091l2.412 1.151c.093.052.133.118.133.183 0 .066-.027.118-.08.197C55.724 17.692 53.06 19 49.808 19h-.4c-5.53 0-9.194-3.73-9.194-9.343zm38.322 6.334v2.407c0 .157-.107.262-.267.262H64.28c-.16 0-.268-.105-.268-.262V.602c0-.157.107-.262.267-.262H78.03c.16 0 .267.105.267.262V3.01c0 .157-.106.262-.267.262H67.183v4.763h8.82c.16 0 .267.104.267.261v2.382c0 .157-.106.262-.266.262h-8.821v4.789h11.086c.16 0 .267.104.267.262zm20.84-2.63c0-1.702-1.147-2.474-3.665-2.474h-6.276v4.92h6.276c2.559 0 3.664-.733 3.664-2.447zM94.817 3.191h-5.383v4.92h5.383c2.412 0 3.518-.771 3.518-2.46 0-1.687-1.106-2.46-3.518-2.46zm7.809 10.443c0 3.206-2.505 5.025-6.93 5.025H86.53c-.16 0-.266-.105-.266-.262V.602c0-.157.106-.262.266-.262h8.355c4.304 0 6.649 1.675 6.649 4.737 0 2.015-1.039 3.337-3.145 3.952 2.958.615 4.238 2.355 4.238 4.606zm15.576 2.382c3.824 0 6.236-2.578 6.236-6.517 0-3.938-2.412-6.517-6.236-6.517h-.4c-3.824 0-6.236 2.579-6.236 6.517 0 3.939 2.412 6.517 6.236 6.517h.4zM108.209 9.5c0-5.522 3.731-9.5 9.594-9.5h.4c5.863 0 9.594 3.978 9.594 9.5s-3.731 9.5-9.594 9.5h-.4c-5.863 0-9.594-3.978-9.594-9.5zm34.991 6.517c3.824 0 6.236-2.578 6.236-6.517 0-3.938-2.412-6.517-6.236-6.517h-.4c-3.824 0-6.236 2.579-6.236 6.517 0 3.939 2.412 6.517 6.236 6.517h.4zM133.206 9.5c0-5.522 3.731-9.5 9.594-9.5h.4c5.863 0 9.594 3.978 9.594 9.5S149.063 19 143.2 19h-.4c-5.863 0-9.594-3.978-9.594-9.5zm42.573 9.16h-3.438c-.227 0-.32-.053-.467-.223-2.411-2.787-5.263-5.56-7.688-7.602h-1.545v7.563c0 .157-.107.262-.267.262h-2.639c-.159 0-.266-.105-.266-.262V.602c0-.157.107-.262.266-.262h2.639c.16 0 .267.105.267.262v7.223h1.572c2.598-2.303 4.997-4.789 6.955-7.288.133-.17.24-.197.4-.197h3.251c.16 0 .24.079.24.184 0 .052-.026.118-.093.196-2.865 3.468-5.703 6.307-8.328 8.506a79.69 79.69 0 019.288 9.107c.146.17.066.327-.147.327" clip-rule="evenodd"/></svg>