<svg width="170" height="19" viewBox="0 0 170 19" fill="none" xmlns="http://www.w3.org/2000/svg">
<path fill-rule="evenodd" clip-rule="evenodd" d="M4.78459 14.4024C4.78459 16.1272 5.36221 16.7875 7.30953 16.7875V17.5844H0.0470369V16.7875C1.99625 16.7875 2.52682 16.1272 2.52682 14.4024V3.13901C2.52682 1.41611 1.99625 0.798782 0 0.798782V0H7.2625V0.798782C5.31329 0.798782 4.78459 1.41611 4.78459 3.13901V7.95041H13.5504V3.13901C13.5504 1.41611 13.0217 0.798782 11.0273 0.798782V0H18.2898V0.798782C16.3425 0.798782 15.8063 1.41611 15.8063 3.13901V14.4024C15.8063 16.1272 16.382 16.7875 18.3312 16.7875V17.5844H11.0744V16.7875C13.0217 16.7875 13.5504 16.1272 13.5504 14.4024V9.01296H4.78459" fill="black"/>
<path fill-rule="evenodd" clip-rule="evenodd" d="M29.8099 11.8398H23.8287L23.3226 13.1175C23.1476 13.5609 22.7469 14.5766 22.7469 15.3717C22.7469 16.1667 23.1476 16.8308 24.7394 16.9169V17.7138H19.4712V16.9169C20.5775 16.9169 20.9764 16.1218 21.4618 14.9732L26.2427 3.66493C26.0225 3.13553 25.4938 2.51446 25.4938 2.51446V2.47144H28.237L33.5051 14.9732C33.9906 16.1218 34.3913 16.9169 35.4939 16.9169V17.7138H28.8993V16.9169C30.5399 16.8308 30.9369 16.1667 30.9369 15.3717C30.9369 14.5766 30.4929 13.5609 30.3198 13.1175L29.8099 11.8398ZM26.8428 4.4581H26.7939L24.205 10.8203H29.4318L26.8428 4.4581Z" fill="black"/>
<path fill-rule="evenodd" clip-rule="evenodd" d="M40.8544 14.6184C40.8544 16.2982 41.4301 16.9174 43.2006 16.9174V17.7125H36.2918V16.9174C38.1507 16.9174 38.638 16.2982 38.638 14.6184V5.74008C38.638 4.05834 38.1074 3.44101 36.2485 3.44101V2.65158H43.3304C47.6296 2.65158 49.131 4.36887 49.131 6.53886C49.131 8.6995 47.2288 10.0258 45.146 10.2915V10.3326L48.4706 14.1825C49.9758 15.9035 51.0369 16.9174 51.9231 16.9174V17.7125H50.2354C48.5572 17.7125 47.893 17.1831 46.3427 15.2357L43.3304 11.4419C42.7584 10.7311 42.67 10.602 41.6521 10.602H40.8544V14.6184ZM43.0651 9.71529C45.1009 9.71529 46.6117 8.88096 46.6117 6.75586C46.6117 4.63264 44.8845 3.52893 42.67 3.52893H40.8544V9.71529H43.0651Z" fill="black"/>
<path fill-rule="evenodd" clip-rule="evenodd" d="M57.2769 14.6184C57.2769 16.2982 57.8526 16.9174 59.6231 16.9174V17.7125H52.718V16.9174C54.5769 16.9174 55.0642 16.2982 55.0642 14.6184V5.74008C55.0642 4.05834 54.5318 3.44101 52.6729 3.44101V2.65158H59.7585C64.052 2.65158 65.5553 4.36887 65.5553 6.53886C65.5553 8.6995 63.6532 10.0258 61.5723 10.2915V10.3326L64.8912 14.1825C66.3982 15.9035 67.4613 16.9174 68.3456 16.9174V17.7125H66.6635C64.9796 17.7125 64.3173 17.1831 62.767 15.2357L59.7585 11.4419C59.179 10.7311 59.0944 10.602 58.0727 10.602H57.2769V14.6184ZM59.4895 9.71529C61.5252 9.71529 63.0342 8.88096 63.0342 6.75586C63.0342 4.63264 61.3089 3.52893 59.0944 3.52893H57.2769V9.71529H59.4895Z" fill="black"/>
<path fill-rule="evenodd" clip-rule="evenodd" d="M76.3819 14.6184C76.3819 16.2982 76.888 16.9174 78.7714 16.9174V17.7125H71.7761V16.9174C73.6575 16.9174 74.1655 16.2982 74.1655 14.6184V11.3952L70.205 5.38465C69.1401 3.79831 68.8297 3.57944 67.5446 3.44101V2.65158H74.0997V3.44101C72.5512 3.44101 72.3763 4.01531 72.3763 4.41377C72.3763 4.81409 72.7714 5.5605 73.3941 6.48836L75.9172 10.3326H75.9586L78.5268 6.4472C78.9708 5.78311 79.1477 5.2537 79.1477 4.81409C79.1477 4.36887 78.9257 3.48778 77.4656 3.44101V2.65158H83.0009V3.44101C81.7159 3.57944 81.4055 3.79831 80.3405 5.38465L76.3819 11.3952" fill="black"/>
<path fill-rule="evenodd" clip-rule="evenodd" d="M94.3771 14.5764C94.3771 16.2993 94.9528 16.9167 96.902 16.9167V17.7136H89.6395V16.9167C91.5888 16.9167 92.1175 16.2993 92.1175 14.5764V3.26815C92.1175 1.54338 91.5888 0.926056 89.5944 0.926056V0.127274H97.4307C101.724 0.127274 103.673 2.20373 103.673 4.63749C103.673 7.06564 101.638 8.78854 99.2464 9.1421V9.187L102.61 13.3848C104.247 15.4164 105.489 16.8306 106.776 16.9167V17.7136H104.827C103.007 17.7136 102.257 16.7857 100.705 14.7991L97.3893 10.5133C96.6819 9.58545 96.3715 9.44889 95.395 9.44889H94.3771V14.5764ZM97.1222 8.48175C99.8691 8.48175 101.015 6.88793 101.015 4.98918C101.015 3.09044 99.8691 1.10003 96.5897 1.10003H94.3771V8.48175H97.1222Z" fill="black"/>
<path fill-rule="evenodd" clip-rule="evenodd" d="M114.787 2.3403C119.346 2.3403 122.403 5.25483 122.403 9.89226C122.403 14.5316 119.259 18.0241 114.698 18.0241C110.136 18.0241 107.082 15.1059 107.082 10.4684C107.082 5.82913 110.226 2.3403 114.787 2.3403ZM115.097 17.0495C118.061 17.0495 119.833 14.7542 119.833 11.0409C119.833 7.32942 118.153 3.31119 114.388 3.31119C111.421 3.31119 109.65 5.61026 109.65 9.31608C109.65 13.0294 111.334 17.0495 115.097 17.0495Z" fill="black"/>
<path fill-rule="evenodd" clip-rule="evenodd" d="M125.056 13.1168H125.983C126.429 15.3279 127.49 16.961 130.147 16.961C132.806 16.961 133.423 15.3279 133.423 14.531C133.423 13.7378 133.205 13.1616 132.715 12.6304C132.226 12.101 131.253 11.5716 130.587 11.218L128.687 10.2022C127.935 9.80377 126.917 9.18644 126.386 8.61214C125.856 8.03784 125.368 7.32885 125.368 6.14097C125.368 4.9007 126.03 3.79887 127.135 3.13478C128.241 2.47256 129.44 2.33974 130.546 2.33974C131.652 2.33974 133.554 2.60163 135.109 3.66231V6.88737H134.266C133.912 3.84003 131.652 3.2676 130.546 3.2676C129.44 3.2676 128.732 3.52949 128.288 3.88492C127.842 4.23848 127.534 4.76789 127.534 5.38521C127.534 6.00254 127.669 6.40099 128.113 6.93227C128.552 7.46354 129.041 7.72731 129.308 7.86013L131.21 8.87591C132.273 9.45208 133.643 10.1573 134.399 10.9075C135.15 11.6595 135.594 12.6304 135.594 13.7378C135.594 16.2558 133.381 18.0236 130.147 18.0236C126.917 18.0236 125.056 16.7852 125.056 16.7852" fill="black"/>
<path fill-rule="evenodd" clip-rule="evenodd" d="M150.2 17.713H137.764V16.9161C139.625 16.9161 140.108 16.2988 140.108 14.6189V5.74064C140.108 4.05889 139.58 3.44157 137.717 3.44157V2.65027H150.024V6.00628H149.23C148.52 3.92795 147.726 3.52949 145.73 3.52949H142.323V9.45208H144.934C147.019 9.45208 147.681 8.91893 147.813 7.32885H148.699V12.5873H147.813C147.681 10.8663 147.019 10.3332 144.934 10.3332H142.323V14.6189C142.323 16.2988 142.857 16.8301 144.535 16.8301H145.642C148.21 16.8301 149.585 16.1248 150.295 13.9137L151.222 14.1812" fill="black"/>
<path fill-rule="evenodd" clip-rule="evenodd" d="M155.251 5.12443L154.632 4.45846C153.962 3.75322 153.347 3.48758 152.329 3.44268V2.65138H156.136L166.361 14.2683H166.407V5.89328C166.407 4.23772 165.966 3.44268 163.795 3.44268V2.65138H169.859V3.44268C168.004 3.44268 167.471 4.23772 167.471 5.9176V13.5144C167.471 15.1064 167.558 15.5909 168.004 17.4897V17.5402L166.452 17.933C165.695 16.9172 165.21 16.3429 164.681 15.7275L156.358 6.26929H156.309V14.4423C156.309 16.1259 156.756 16.9172 158.928 16.9172V17.7123H152.858V16.9172C154.719 16.9172 155.251 16.1259 155.251 14.4423" fill="black"/>
</svg>
