<svg viewBox="0 0 122 40" fill="#000" xmlns="http://www.w3.org/2000/svg"><path fill-rule="evenodd" clip-rule="evenodd" d="M19.1409 12.4819H12.9378C10.7628 12.4819 9.66912 13.0672 9.66912 13.0672V0H0V40H9.66912V23.8591C9.66912 22.4316 10.8305 21.2757 12.2608 21.2757H17.8882C19.3208 21.2757 20.4787 22.4316 20.4787 23.8591V40H30.1507V22.6098C30.1507 15.2964 25.2617 12.4819 19.1409 12.4819V12.4819ZM112.101 12.4819V28.6206C112.101 30.0503 110.943 31.2068 109.511 31.2068H103.884C102.452 31.2068 101.294 30.0503 101.294 28.6206V12.4819H91.6202V29.4257C91.6202 36.3512 96.0643 40 102.633 40H112.102V39.9505C118.152 39.9505 121.773 35.6574 121.773 29.4257V12.4819H112.101ZM57.5457 28.6206C57.5457 30.0503 56.386 31.2068 54.9546 31.2068H49.3271C47.8946 31.2068 46.7361 30.0503 46.7361 28.6206V12.4819H37.0641V29.4257C37.0641 36.3512 41.5083 40 48.0761 40H57.5457V39.9505C63.5955 39.9505 67.2176 35.6574 67.2176 29.4257V12.4819H57.5457V28.6206V28.6206ZM74.5889 40H84.2619V0H74.5889V40Z"></path></svg>
