<svg width="94" height="40" viewBox="0 0 94 40" fill="none" xmlns="http://www.w3.org/2000/svg">
<path d="M67.2629 30C66.4609 30 65.8109 29.35 65.8109 28.548V1.45199C65.8109 1.06703 65.9639 0.697832 66.2361 0.425623C66.5083 0.153414 66.8775 0.000488281 67.2624 0.000488281C67.6474 0.000488281 68.0166 0.153414 68.2888 0.425623C68.561 0.697832 68.7139 1.06703 68.7139 1.45199V28.548C68.7139 29.35 68.0639 30 67.2629 30V30ZM92.0879 26.198C92.2114 26.0527 92.305 25.8845 92.3634 25.703C92.4219 25.5215 92.444 25.3303 92.4285 25.1403C92.4131 24.9502 92.3603 24.7651 92.2733 24.5954C92.1863 24.4258 92.0668 24.2749 91.9214 24.1515C91.7761 24.028 91.6079 23.9344 91.4265 23.876C91.245 23.8176 91.0538 23.7954 90.8637 23.8109C90.6737 23.8264 90.4885 23.8791 90.3189 23.9661C90.1492 24.0531 89.9984 24.1727 89.8749 24.318C88.3749 26.084 86.1299 27.097 83.7149 27.097C79.7119 27.097 76.4559 23.841 76.4559 19.839C76.4559 15.837 79.7119 12.581 83.7139 12.581C86.9659 12.581 89.6829 14.918 90.2729 18.001H81.3899C81.1993 18.001 81.0106 18.0385 80.8345 18.1115C80.6584 18.1844 80.4984 18.2913 80.3636 18.4261C80.2288 18.5609 80.1219 18.7209 80.0489 18.897C79.976 19.0731 79.9384 19.2619 79.9384 19.4525C79.9384 19.6431 79.976 19.8318 80.0489 20.008C80.1219 20.1841 80.2288 20.3441 80.3636 20.4789C80.4984 20.6136 80.6584 20.7206 80.8345 20.7935C81.0106 20.8664 81.1993 20.904 81.3899 20.904H91.8419C92.6439 20.904 93.2929 20.254 93.2929 19.452V19.258C93.2929 13.975 88.9959 9.67799 83.7129 9.67799C78.1099 9.67799 73.5509 14.236 73.5509 19.839C73.5509 25.442 78.1119 30 83.7139 30C86.9839 30 90.0359 28.614 92.0879 26.198V26.198ZM60.9719 28.548V19.258C60.9719 13.975 56.6739 9.67799 51.3919 9.67799C45.7879 9.67799 41.2299 14.235 41.2299 19.838C41.2299 25.443 45.7889 30 51.3909 30C51.7759 30 52.1451 29.8471 52.4173 29.5749C52.6895 29.3026 52.8424 28.9335 52.8424 28.5485C52.8424 28.1635 52.6895 27.7943 52.4173 27.5221C52.1451 27.2499 51.7759 27.097 51.3909 27.097C47.3889 27.097 44.1329 23.841 44.1329 19.839C44.1329 15.837 47.3889 12.581 51.3909 12.581C53.1615 12.5828 54.859 13.287 56.111 14.539C57.3629 15.7909 58.0671 17.4884 58.0689 19.259V28.549C58.0689 28.934 58.2219 29.3031 58.4941 29.5754C58.7663 29.8476 59.1355 30.0005 59.5204 30.0005C59.9054 30.0005 60.2746 29.8476 60.5468 29.5754C60.819 29.3031 60.9719 28.934 60.9719 28.549V28.548ZM17.0319 24.194C17.0319 22.777 16.5119 20.844 14.0319 19.684C12.5449 18.987 10.6779 18.7 8.87294 18.424C4.64394 17.775 3.14294 17.234 3.14294 15.484C3.14294 13.578 5.78494 12.581 8.39594 12.581C10.0409 12.581 12.4059 12.912 14.3279 14.493C14.6261 14.7296 15.0053 14.8398 15.3838 14.7996C15.7623 14.7595 16.1099 14.5723 16.3518 14.2783C16.5937 13.9844 16.7105 13.6073 16.677 13.2281C16.6436 12.8489 16.4626 12.498 16.1729 12.251C13.5869 10.123 10.5159 9.67699 8.39694 9.67699C2.79194 9.67699 0.239943 12.687 0.239943 15.483C0.239943 16.909 0.761943 18.855 3.24994 20.024C4.74694 20.727 6.62094 21.014 8.43394 21.292C12.6369 21.937 14.1289 22.472 14.1289 24.192C14.1289 25.929 12.0559 27.096 8.97094 27.096C5.81294 27.096 3.40594 25.816 2.25294 25.052C1.93209 24.8554 1.54748 24.7911 1.18014 24.8726C0.812806 24.954 0.491432 25.1749 0.283738 25.4887C0.0760447 25.8024 -0.00174869 26.1845 0.0667501 26.5545C0.135249 26.9245 0.344691 27.2534 0.650943 27.472C3.10994 29.103 6.06694 30 8.96994 30C14.5379 30 17.0309 27.084 17.0309 24.194H17.0319ZM38.0799 25.716C38.2886 25.3953 38.3623 25.0052 38.285 24.6305C38.2077 24.2558 37.9856 23.9268 37.667 23.7149C37.3484 23.503 36.9591 23.4255 36.5836 23.4991C36.2082 23.5727 35.877 23.7915 35.6619 24.108C35.0535 25.0271 34.2267 25.7811 33.2556 26.3025C32.2844 26.8239 31.1992 27.0965 30.0969 27.096C26.0949 27.096 22.8389 23.841 22.8389 19.839C22.8389 15.837 26.0949 12.581 30.0969 12.581C31.1992 12.5803 32.2845 12.8529 33.2556 13.3744C34.2268 13.8958 35.0535 14.6498 35.6619 15.569C35.7675 15.7278 35.9032 15.8642 36.0615 15.9705C36.2197 16.0768 36.3973 16.1509 36.5842 16.1885C36.7711 16.2262 36.9636 16.2267 37.1506 16.1899C37.3377 16.1532 37.5157 16.08 37.6744 15.9745C37.8332 15.869 37.9696 15.7332 38.0759 15.575C38.1822 15.4167 38.2563 15.2391 38.294 15.0522C38.3316 14.8653 38.3321 14.6729 38.2954 14.4858C38.2587 14.2988 38.1855 14.1208 38.0799 13.962C37.207 12.6437 36.021 11.5623 34.6279 10.8146C33.2348 10.0668 31.678 9.67595 30.0969 9.67699C24.4939 9.67699 19.9349 14.235 19.9349 19.839C19.9359 25.442 24.4949 30 30.0979 30C31.6789 30.0009 33.2355 29.6101 34.6285 28.8625C36.0216 28.1149 37.2077 27.0339 38.0809 25.716H38.0799Z" fill="black"/>
</svg>
