<svg width="179" height="56" viewBox="0 0 179 56" fill="none" xmlns="http://www.w3.org/2000/svg">
<path fill-rule="evenodd" clip-rule="evenodd" d="M27.8498 0L27.1594 2.13333H24.9266L26.7342 3.46667L26.0427 5.59947L27.8498 4.26613L29.6568 5.59947L28.9659 3.46667L30.773 2.13333H28.5413L27.8503 0H27.8498ZM33.803 2.82667L31.6765 2.23947L33.0583 4L31.8359 5.86667L33.9092 5.06667L35.3443 6.82667L35.238 4.58667L37.3102 3.78613L35.1311 3.19947L35.0248 0.96L33.803 2.82667ZM20.5158 3.19947L18.3362 3.78613L20.409 4.58667L20.3032 6.82667L21.7377 5.06667L23.811 5.86667L22.5881 4L24.0231 2.23947L21.8445 2.82667L20.6216 0.96L20.5158 3.19947ZM14.4032 5.97333L12.4367 7.09333L14.6695 7.30667L15.1478 9.49333L16.0514 7.41333L18.2831 7.62667L16.636 6.1328L17.5395 4.10667L15.573 5.22667L13.9249 3.7328L14.4032 5.97333ZM40.0745 5.28L38.108 4.15947L39.011 6.18613L37.3634 7.68L39.5961 7.46667L40.4997 9.54667L40.978 7.36L43.2102 7.09333L41.2432 5.97333L41.7215 3.78613L40.0745 5.28ZM44.2201 9.81333L42.253 10.8261L44.4853 11.2L44.8578 13.4933L45.8677 11.4661L48.0994 11.8395L46.5049 10.24L47.5147 8.21333L45.4951 9.22667L43.848 7.5728L44.2201 9.81333ZM10.1514 9.17333L8.13171 8.16L9.14153 10.1867L7.54761 11.7867L9.77932 11.4133L10.7897 13.44L11.1612 11.2L13.3934 10.8261L11.3743 9.81333L11.7463 7.5728L10.1514 9.17333ZM5.89948 14.3995L3.66724 13.92L5.20908 15.5733L4.09296 17.5467L6.1126 16.6395L7.60076 18.2933L7.38764 16.0533L9.40781 15.1467L7.22819 14.6667L7.01613 12.4267L5.89948 14.3995ZM48.4182 14.7195L46.2397 15.1995L48.2593 16.1595L48.0462 18.4L49.5349 16.7467L51.5545 17.6528L50.4379 15.68L51.9266 14.0267L49.7475 14.5067L48.6314 12.5333L48.4182 14.7195ZM3.18944 20.5328L0.956672 20.64L2.8174 21.8667L2.23277 24.0533L3.98613 22.6133L5.84633 23.8395L5.0491 21.76L6.803 20.32L4.5713 20.4261L3.77407 18.3467L3.18944 20.5328ZM51.0762 20.5328L48.8434 20.4261L50.5979 21.8667L49.8001 23.9467L51.6603 22.72L53.4147 24.16L52.8296 21.9728L54.6898 20.7467L52.4581 20.64L51.8729 18.4533L51.0762 20.5328ZM2.12594 27.1995L0 27.8933L2.12594 28.5867V30.8261L3.45465 29.0133L5.58112 29.7067L4.25241 27.8933L5.58112 26.08L3.45465 26.7728L2.12594 24.96V27.1995ZM52.1918 26.8267L50.0664 26.1333L51.3951 27.9467L50.0664 29.7595L52.1918 29.0667L53.521 30.88V28.6395L55.6464 27.9467L53.521 27.2528V25.0133L52.1918 26.8267ZM51.7135 33.1733L49.8001 31.9467L50.5979 34.08L48.8434 35.52L51.0762 35.4133L51.8729 37.4928L52.4581 35.3067L54.7429 35.1467L52.8827 33.92L53.4679 31.7333L51.7135 33.1733ZM2.8174 33.92L0.956672 35.1467L3.18944 35.2539L3.77407 37.44L4.5713 35.3595L6.803 35.4661L5.0491 34.0261L5.84633 31.8933L3.98613 33.12L2.23277 31.7333L2.8174 33.92ZM6.1126 39.1467L4.09296 38.2395L5.20908 40.2133L3.72092 41.8667L5.89948 41.3867L7.01613 43.36L7.22819 41.0667L9.40781 40.6395L7.38764 39.7328L7.60076 37.4928L6.1126 39.1467ZM48.2062 39.7867L46.186 40.6928L48.3651 41.1728L48.5777 43.4133L49.6943 41.44L51.8729 41.92L50.3853 40.2661L51.5009 38.2928L49.4812 39.1995L47.9936 37.5467L48.2062 39.7867ZM9.7267 44.3733L7.49446 43.9995L9.08892 45.5995L8.0791 47.6261L10.0982 46.6133L11.6927 48.2133L11.3212 45.9728L13.3408 44.9595L11.108 44.5867L10.7365 42.3467L9.7267 44.3733ZM44.4326 44.64L42.1999 45.0133L44.2201 46.0261L43.848 48.2667L45.4419 46.6667L47.4616 47.68L46.4518 45.5995L48.0462 43.9995L45.8145 44.3733L44.8047 42.4L44.4326 44.64ZM14.6158 48.5333L12.3841 48.7467L14.3501 49.8661L13.8723 52.0539L15.5199 50.56L17.4858 51.68L16.5829 49.6539L18.2299 48.16L15.9977 48.3728L15.0942 46.3467L14.6158 48.5333ZM39.5961 48.4261L37.3634 48.2133L39.011 49.7067L38.108 51.7328L40.0745 50.6133L41.7215 52.1067L41.2432 49.92L43.2102 48.7995L40.978 48.5867L40.4997 46.3995L39.5961 48.4261ZM33.8561 50.72L31.7833 49.92L33.0057 51.7867L31.6233 53.5467L33.803 52.96L35.0248 54.88L35.1311 52.6395L37.3102 52L35.1848 51.1995L35.2911 48.9595L33.8561 50.72ZM20.3564 51.2533L18.2831 52.0539L20.4627 52.6395L20.5685 54.88L21.7909 53.0133L23.97 53.5995L22.5349 51.84L23.7579 49.9733L21.6851 50.7728L20.2496 49.0133L20.3564 51.2533ZM27.7966 51.5733L25.9896 50.2395L26.6811 52.3733L24.8735 53.7067H27.1062L27.7966 55.84L28.4881 53.7067H30.7198L28.9128 52.3733L29.6042 50.2395L27.7966 51.5733Z" fill="black"/>
<path fill-rule="evenodd" clip-rule="evenodd" d="M26.8401 33.0668C25.9897 33.1734 25.0862 33.2268 24.1295 33.2268C22.0568 33.2268 20.8875 32.9068 20.4623 32.6401C20.9406 32.2134 21.5253 31.8401 22.163 31.6268C23.4918 31.0401 24.9268 30.6134 26.4149 30.3468L26.8401 33.0668ZM34.2278 31.3601C32.899 31.8934 31.464 32.3196 30.029 32.5862L29.6038 29.9196C30.5074 29.8134 31.464 29.7601 32.3676 29.7601C34.4403 29.7601 35.6628 30.0801 36.0348 30.2934C35.5033 30.7734 34.8655 31.0934 34.2278 31.3601ZM23.4918 28.9601C22.4288 29.2801 21.3658 29.7068 20.4092 30.2401L21.1532 18.7201C22.3225 18.7201 23.4918 18.6668 24.661 18.5068L26.1492 28.2668L26.1481 28.2671C25.245 28.4803 24.3417 28.6935 23.4918 28.9601ZM32.3676 27.6801C31.3046 27.6801 30.2948 27.7334 29.2849 27.8401L27.7968 18.0801C28.9129 17.8668 30.029 17.5468 31.1451 17.1734L35.397 27.9468C34.3872 27.7334 33.3774 27.6801 32.3676 27.6801ZM17.0608 15.5201C17.9643 16.2134 19.8245 16.5868 22.0568 16.5868C23.4918 16.5868 24.8736 16.4801 26.3086 16.2134C30.029 15.5201 33.1116 14.1868 34.3872 12.7468C33.7494 14.3468 30.4542 16.1068 26.3086 16.8534C25.0331 17.1201 23.7575 17.2268 22.4819 17.2268C19.7714 17.2268 17.6454 16.5868 17.0608 15.5201ZM34.6529 11.0401C33.7494 10.6134 32.2613 10.4001 30.4011 10.4001C28.6472 10.4001 26.8933 10.5601 25.0862 10.7734C20.9406 11.5201 17.5391 12.8001 16.1573 14.0801C14.9349 15.2534 15.3069 17.6001 16.8482 18.1868C17.1671 18.3468 17.486 18.4534 17.858 18.5068L16.3167 42.1862C16.2636 42.5601 16.423 42.9334 16.6888 43.2001C17.0076 43.5196 17.4328 43.7334 17.9112 43.7334H17.9643C18.3364 43.7862 18.6553 43.6268 18.9741 43.4134C19.2399 43.2001 19.4525 42.8268 19.4525 42.4529L19.984 34.7734C21.2595 35.1468 22.6414 35.3601 24.0232 35.3068C24.4484 35.3068 24.9268 35.3068 25.352 35.2529C25.9366 35.2001 26.5212 35.1468 27.1059 35.0934L28.594 44.6401C28.6472 45.0134 28.8598 45.3334 29.1786 45.5468C29.4975 45.7068 29.8164 45.8134 30.1353 45.8134C30.2231 45.8134 30.2948 45.7972 30.3592 45.7827C30.4118 45.7709 30.4596 45.7601 30.5074 45.7601C30.8794 45.7068 31.2514 45.4934 31.5172 45.1734C31.7298 44.8529 31.8361 44.4801 31.7829 44.1068L30.2948 34.5601C31.2514 34.4001 32.155 34.1862 32.9522 33.9196C34.3872 33.5468 35.7159 32.9068 36.9383 32.1068L36.9915 32.0529L39.8083 39.2001C39.9678 39.5734 40.2335 39.8401 40.6056 40.0001C40.765 40.0529 40.9776 40.1068 41.137 40.1068C41.3453 40.1068 41.5537 40.055 41.762 40.0033L41.7748 40.0001C42.2 39.8401 42.5721 39.5734 42.7847 39.1468C42.9441 38.8268 42.9972 38.4529 42.8378 38.0801L34.1215 15.8401C34.4935 15.6268 34.8124 15.4134 35.1313 15.1468C36.4068 14.0801 36.1411 11.7334 34.6529 11.0401Z" fill="black"/>
<path fill-rule="evenodd" clip-rule="evenodd" d="M86.7942 29.1214L88.7961 31.1609V39.3793L86.647 41.5388H80.9945V47.1177H82.5843V50.657H75.9603V47.1177H77.5501V32.6306H75.9603V29.1214H86.7942ZM114.35 29.1214L116.146 30.861V40.1291L114.35 42.0487H113.202L115.734 47.1177H117.206V50.657H113.702L109.581 42.0487H108.374V47.1177H109.963V50.657H103.339V47.1177H104.929V32.6306H103.339V29.1214H114.35ZM132.161 29.1214V36.7998H128.805V32.6306H126.656V47.1177H128.246V50.657H121.622V47.1177H123.211V32.6306H121.062V36.7998H117.765V29.1214H132.161ZM99.4239 29.1214L101.632 31.4309V48.3175L99.365 50.627H92.5055L90.3859 48.2875V31.4309L92.6233 29.1214H99.4239ZM71.7507 28.8214L73.6934 30.771V34.8802H70.249V32.3607H65.5975V37.4897H71.6915L73.6643 39.4993V47.7176L71.1321 50.3571H64.4199L62.1235 48.0475V44.2683H65.5975V46.8478H70.2195V40.999H64.1255L62.153 38.9894V30.711L64.0371 28.8214H71.7507ZM143.554 28.8214L145.497 30.771V34.8802H142.053V32.3607H137.431V37.4897H143.525L145.497 39.4993V47.7176L142.966 50.3571H136.253L133.957 48.0475V44.2683H137.401V46.8478H142.023V40.999H135.929L133.957 38.9894V30.711L135.841 28.8214H143.554ZM98.158 32.6007H93.8303V47.0577H98.158V32.6007ZM112.701 32.6306H108.374V38.5095H112.701V32.6306ZM85.3222 32.6306H80.9945V38.0596H85.3222V32.6306ZM149.148 28.8214C150.384 28.8214 151.386 29.8412 151.386 31.101C151.386 32.3607 150.384 33.3805 149.148 33.3805C147.912 33.3805 146.91 32.3607 146.91 31.101C146.91 29.8412 147.912 28.8214 149.148 28.8214ZM149.148 29.2113C148.118 29.2113 147.293 30.0512 147.293 31.101C147.293 32.1508 148.118 32.9906 149.148 32.9906C150.179 32.9906 151.003 32.1508 151.003 31.101C151.003 30.0512 150.179 29.2113 149.148 29.2113ZM149.884 30.2086C150.061 30.2986 150.119 30.5086 150.09 30.7185C150.119 31.0185 149.913 31.3184 149.619 31.4084L150.208 32.2182H149.737L149.207 31.4684H148.736V32.2182H148.382V30.0287H149.177C149.413 29.9987 149.678 30.0587 149.884 30.2086ZM149.207 30.3286H148.736V31.1085H149.177C149.354 31.1385 149.501 31.1085 149.619 31.0185C149.707 30.9285 149.737 30.8385 149.737 30.7185C149.766 30.5986 149.707 30.4786 149.619 30.4186C149.501 30.3586 149.354 30.3286 149.207 30.3286ZM104.664 4.3464L106.46 6.08605V15.3542L104.664 17.2738H103.516L106.048 22.3427H107.52V25.882H104.017L99.8655 17.3038H98.6585V22.3727H100.248V25.912H93.6242V22.3427H95.214V7.85569H93.6242L93.6537 4.3464H104.664ZM72.8691 4.3464L75.0182 6.47597V12.8947L73.4873 14.4543L75.0182 16.074V23.6625L72.8397 25.882H62.1824V22.3427H63.7722V7.85569H62.1824V4.3464H72.8691ZM137.284 4.3464V12.0248H133.927V7.85569H131.778V22.3427H133.368V25.882H126.744V22.3427H128.334V7.85569H126.185V12.0248H122.887V4.3464H137.284ZM148.059 4.3764L150.267 6.68593V23.5725L148 25.882H141.17L139.05 23.5425V6.68593L141.287 4.3764H148.059ZM161.66 4.3764L163.868 6.68593V23.5725L161.601 25.882H154.742L152.622 23.5425V6.68593L154.859 4.3764H161.66ZM172.553 4.34637V7.85566H170.963V22.3427H175.291V17.3337H178.735V25.882H165.899V22.3427H167.489V7.85566H165.899L165.929 4.34637H172.553ZM85.7638 4.31635L90.7098 22.343H92.2112V25.882H85.4106V22.343H87.383L86.7942 20.0934H81.7011L81.0829 22.343H82.8199V25.882H76.1959V22.343H77.6973L82.6432 4.31635H85.7638ZM119.178 4.31644L121.121 6.26604V10.3752H117.677V7.85572H113.055V12.9847H119.149L121.121 14.9943V23.2126L118.589 25.8521H111.877L109.581 23.5425V19.7633H113.025V22.3428H117.647V16.494H111.553L109.581 14.4844V6.20605L111.465 4.31644H119.178ZM71.5443 16.4939H67.2166V22.3124H71.5443V16.4939ZM146.822 7.85569H142.495V22.3127H146.822V7.85569ZM160.423 7.85569H156.096V22.3127H160.423V7.85569ZM84.2035 10.855L82.5255 16.9138H85.8816L84.2035 10.855ZM103.045 7.85569H98.7174V13.7345H103.045V7.85569ZM71.5443 7.85569H67.2166V12.9546H71.5443V7.85569Z" fill="black"/>
</svg>
