<svg width="95" height="44" viewBox="0 0 95 44" fill="none" xmlns="http://www.w3.org/2000/svg">
<path fill-rule="evenodd" clip-rule="evenodd" d="M86.5089 18.3887C86.5039 20.1827 85.9947 20.4544 84.8785 20.2713C83.8116 20.0992 83.3522 19.6699 83.3562 18.4143C83.3693 14.2003 83.3728 12.0938 83.3849 7.8782C83.3869 6.756 83.949 6.26031 84.8649 6.40927C85.6776 6.54212 86.5422 7.04636 86.5381 8.43729C86.5261 12.4178 86.52 14.4076 86.5089 18.3887ZM91.1739 35.021C91.1724 35.5428 91.1724 35.8025 91.1704 36.3213C91.1694 36.5905 91.0677 36.6635 90.9147 36.6338C90.7144 36.5956 90.6128 36.3505 90.6143 35.9479L90.6465 25.9502C90.6525 23.7979 88.154 21.9521 88.1746 21.8192C88.1746 21.8192 90.6631 20.6593 90.6712 18.1033C90.6817 14.7503 90.6883 13.0741 90.6973 9.72003C90.7084 6.35744 87.5672 4.47737 85.3802 4.11756C84.2092 3.92331 83.5439 4.00433 82.9863 4.00433C82.3784 4.00433 81.7635 3.99628 81.0509 3.89362C80.7444 3.84732 80.3363 3.74567 80.0314 3.61282C79.7259 3.47845 79.3983 3.20218 79.3696 3.20721C79.3263 3.21073 78.2962 3.77687 77.6838 3.60577C77.8851 5.28354 77.9847 6.12293 78.1855 7.79919C78.3496 7.82083 78.4301 7.83241 78.5931 7.85455C78.5951 7.35182 78.5951 7.0997 78.5961 6.59748C78.5982 5.97096 78.7008 5.89295 78.9046 5.92063C79.0581 5.94277 79.1583 6.00417 79.1562 6.63069C79.1492 9.64303 79.1467 11.1507 79.1386 14.1641C79.1321 17.0325 78.0693 19.0283 78.0572 19.22C78.0557 19.2502 78.7703 19.9432 78.7688 20.2567C78.7688 20.391 78.7174 20.5194 78.6153 20.6406C78.5131 20.7604 78.1674 20.9275 78.1548 20.9813C78.1216 21.1373 79.1175 23.1754 79.1125 25.3725C79.1054 28.7266 79.1024 30.4033 79.0938 33.7573C79.0923 34.4302 78.9912 34.5056 78.7869 34.477C78.4814 34.4367 78.4311 34.1161 78.4316 33.8026C78.4321 33.3175 78.4331 33.075 78.4341 32.5909C78.2711 32.5692 78.19 32.5587 78.027 32.536C77.7774 34.1192 77.6551 34.9097 77.408 36.4929C77.866 36.5518 78.9746 37.5432 79.0848 37.5698C79.1774 37.592 80.4083 37.3051 81.069 37.4017C81.4253 37.4531 81.8324 37.5598 82.239 37.7102C82.6446 37.8612 83.1136 38.1848 83.2032 38.1717C83.3522 38.1526 84.3732 37.5935 84.9827 37.6936C84.7844 36.1361 84.6837 35.3561 84.4845 33.7991C84.3495 33.7772 84.2145 33.7557 84.0794 33.7347C84.0768 34.2178 84.0763 34.4614 84.0758 34.946C84.0748 35.3486 84.024 35.3843 83.8705 35.3611C83.4659 35.2972 83.3139 34.7351 83.319 32.8083C83.329 29.3652 83.3321 27.6431 83.3406 24.1985C83.3436 22.6304 83.7533 22.3773 84.8206 22.5514C85.9388 22.7316 86.4949 23.0999 86.4903 24.7566C86.4767 29.8498 86.4682 32.3976 86.4536 37.4898C87.0122 37.5854 87.7449 38.8873 87.8697 38.9462C87.925 38.9733 88.8329 38.8475 89.2375 38.921C89.4403 38.9587 89.6944 39.0065 89.947 39.0981C90.1991 39.1897 90.5227 39.4378 90.5534 39.4353C90.5972 39.4318 91.6172 38.8304 92.0717 38.918C91.8759 37.3912 91.7763 36.6268 91.579 35.0995L91.1739 35.021ZM77.4307 30.6947L77.4362 27.5022C77.4382 26.6054 77.9012 25.7384 77.8906 25.6589C77.872 25.529 76.464 24.831 76.4695 22.4633C76.3548 22.4487 76.2974 22.4397 76.1837 22.4251C76.1786 24.6499 74.8461 24.9775 74.7495 25.1949C74.7233 25.2507 75.0328 26.376 75.0313 27.2013L75.0262 29.7838C75.0222 31.3625 74.7766 31.5834 74.0011 31.4948C73.1441 31.3952 72.8186 31.1083 72.8186 30.2478C72.8246 27.3069 72.8286 25.835 72.8337 22.8941C72.8367 20.8847 72.8387 20.4167 73.4909 20.4917C73.7365 20.5184 74.063 20.7735 74.0625 21.0966C74.0625 21.3814 74.0107 21.5595 73.899 21.7573C73.7416 22.0336 73.6562 22.3451 73.6509 22.6631C73.6499 23.3093 74.6503 23.7602 74.671 23.7149C74.671 23.7149 74.4259 23.2896 74.4259 23.0738C74.4279 22.8231 74.7253 22.6435 75.2049 22.2701C75.4872 22.0487 75.6945 21.7553 75.6955 21.325C75.696 20.8228 75.4117 20.4293 75.0036 20.0926L75.9446 19.5969C75.5858 19.2809 75.4062 19.1219 75.0474 18.8074C75.4967 18.6091 75.7031 18.2755 75.7041 17.8814C75.7046 17.5241 75.4187 17.0571 75.2159 16.8548C74.8083 16.4452 74.6453 16.2112 74.6453 15.9963C74.6463 15.7809 74.8204 15.4709 74.8093 15.4413C74.8043 15.4272 73.746 15.712 73.745 16.2867C73.745 16.574 73.822 16.8785 73.9081 17.0939C73.981 17.2801 74.0701 17.3998 74.0701 17.6877C74.0686 17.9041 73.8638 18.201 73.5769 18.1683C73.128 18.1184 72.8422 17.9428 72.8452 16.3647L72.8603 9.22636C72.8628 7.79064 73.2715 7.44039 73.9674 7.52091C74.7429 7.60947 75.0695 8.18819 75.0665 9.44476C75.0655 10.3194 75.063 10.7582 75.062 11.6338C75.0589 12.8164 74.6367 13.4807 74.6493 13.5567C74.6674 13.6674 76.0785 14.699 76.0734 16.6727L76.4006 16.7119C76.4041 14.6673 77.6586 14.161 77.7517 13.9441C77.7719 13.8943 77.4689 12.9025 77.4714 11.9705C77.4744 10.5926 77.4754 9.9027 77.48 8.52586C77.481 7.48518 77.8529 6.87124 77.8509 6.85111C77.8509 6.85111 76.8711 6.10029 76.7901 6.06858C76.7307 6.04745 76.0946 6.33882 75.8087 6.30409C75.3186 6.24371 74.991 6.06254 74.6649 5.95284C74.3383 5.84313 74.0107 5.73293 73.5196 5.67707C73.2063 5.64172 72.8894 5.65462 72.58 5.71531C72.0943 5.80885 71.5972 5.82869 71.1056 5.77419C70.7785 5.73947 70.4096 5.66851 70.1243 5.56787C69.8364 5.46722 69.534 5.24781 69.4701 5.25335C69.3518 5.26643 68.7318 5.79281 68.1979 5.78023C68.3438 7.02724 68.4173 7.65225 68.5622 8.89925L68.8893 8.92945C68.8918 8.45641 68.8908 8.21989 68.8918 7.74535C68.9331 7.46354 69.0151 7.36289 69.2194 7.38151C69.3835 7.39711 69.4243 7.50883 69.4238 7.79617L69.4117 15.2218C69.4097 16.8724 68.6719 17.9192 68.6704 18.0238C68.6689 18.0757 69.1616 18.5703 69.1616 18.7867C69.1606 19.0384 68.6855 19.3956 68.6689 19.4585C68.6528 19.5139 69.4036 20.7473 69.3996 23.0788C69.3956 25.834 69.3921 27.2108 69.387 29.968C69.387 30.361 69.305 30.4974 69.1017 30.4788C68.8969 30.4587 68.8551 30.3097 68.8561 29.88L68.8581 28.7336C68.7112 28.72 68.6367 28.7125 68.4893 28.6994C68.3398 29.9776 68.2678 30.6157 68.1174 31.8949C68.526 32.0026 69.2617 32.7418 69.3437 32.7604C69.391 32.772 69.9964 32.4645 70.3658 32.5023C70.856 32.5501 71.3456 32.6724 71.7537 32.7876C72.1613 32.9034 72.569 33.0896 73.0591 33.1449C73.672 33.2123 74.0042 33.1469 74.3247 33.1102C74.6065 33.0765 74.9377 33.0025 75.4681 33.0679C75.7111 33.0981 75.9149 33.157 76.1198 33.2194C76.3236 33.2798 76.6185 33.4911 76.6899 33.47C76.7533 33.4499 77.7774 33.0357 77.792 33.0025C77.792 33.0025 77.4266 32.453 77.4307 30.6947ZM65.6224 5.27499C65.37 5.25422 65.1216 5.1992 64.8841 5.11144C64.638 5.02086 64.3431 4.81151 64.3104 4.81705C64.2752 4.82309 63.5717 5.37412 63.2018 5.34896C63.2008 6.64025 63.2008 7.28388 63.1983 8.57517C63.3623 8.58675 63.4454 8.5953 63.6089 8.60537C63.6754 8.15045 63.7071 7.92399 63.774 7.46958C63.8153 7.15053 63.9385 7.04988 64.0613 7.05944C64.3084 7.07655 64.3064 7.29194 64.2656 7.72069C63.9667 10.884 63.8178 12.4651 63.5178 15.6315C63.4348 16.4502 62.9039 17.4341 62.9014 17.6348C62.8994 17.7506 63.2687 18.1985 63.2687 18.4853C63.2687 18.7711 62.8767 19.0897 62.8581 19.2105C62.848 19.2719 63.1032 19.7288 63.0619 20.5873C62.9935 22.0165 62.9613 22.7331 62.8933 24.1628C62.7791 24.1542 62.7222 24.1512 62.607 24.1426L62.447 20.6185C62.4072 19.8974 62.7388 19.2724 62.7358 19.2019C62.7323 19.145 62.2849 18.67 62.2849 18.4189C62.2859 18.1673 62.7721 17.7018 62.7771 17.6263C62.7841 17.5498 62.0006 16.4623 61.9201 14.6623L61.519 7.42781C61.519 7.10373 61.5593 6.96282 61.6418 6.96786C61.7661 6.97591 61.8466 7.08863 61.8874 7.44894L62.0092 8.49868C62.1405 8.50674 62.2064 8.50976 62.3373 8.51881C62.3383 7.22803 62.3383 6.58288 62.3408 5.29109C61.7253 5.24983 61.2246 4.62028 61.1517 4.60569C61.125 4.60166 60.1251 4.90461 59.4271 4.86737C59.0805 4.85332 58.7366 4.79997 58.402 4.70835C58.1177 4.62834 57.786 4.41346 57.7453 4.42805C57.7035 4.44013 57.0876 5.11446 56.5536 5.09231C56.7987 6.36348 56.923 7.00107 57.1676 8.27424C57.2984 8.28079 57.3648 8.28431 57.4967 8.28934C57.4967 7.75893 57.4957 7.49424 57.4967 6.96232C57.4967 6.78317 57.619 6.68051 57.7418 6.68605C57.9078 6.6946 58.0306 6.7716 58.0709 7.31005C58.2993 10.7527 58.4111 12.4717 58.638 15.9128C58.719 16.957 58.0955 17.5563 58.1051 17.6464C58.1091 17.6867 58.5947 18.0289 58.5947 18.279C58.5947 18.5296 58.1906 18.8894 58.1841 18.9412C58.1791 18.987 59.0451 19.7368 59.2887 22.9792C59.5307 26.3206 59.6525 27.9918 59.8956 31.3353C60.1829 31.3514 60.7395 32.0901 60.7954 32.1032C60.8125 32.1073 61.4103 31.7822 62.0248 31.8204C62.3524 31.8415 62.6538 31.8863 62.844 31.9447C63.0805 32.0172 63.3503 32.2733 63.3754 32.2693C63.3754 32.2693 63.9909 31.5597 64.317 31.5834L65.4357 21.6939C65.6017 20.1631 66.3792 19.523 66.3807 19.4726C66.3807 19.4726 65.7678 18.9216 65.7678 18.6348C65.7688 18.3479 66.2911 18.0269 66.3012 17.9604C66.3078 17.9091 65.8936 16.9575 66.0587 15.394C66.3586 12.3031 66.5075 10.7577 66.8085 7.66936C66.8492 7.42127 66.8915 7.3171 67.0138 7.32716C67.1361 7.33773 67.2176 7.45297 67.2176 7.70308L67.2156 8.81522C67.3635 8.8288 67.437 8.83434 67.5839 8.84742C67.7656 7.61451 67.8582 6.99855 68.0394 5.76614C67.7128 5.73595 66.9831 5.03746 66.8935 5.02237C66.8603 5.01482 66.1135 5.31424 65.6224 5.27499ZM58.9596 24.2176C58.9324 24.1084 57.5656 23.2177 57.5676 21.2088C57.4529 21.2038 57.3955 21.2017 57.2798 21.1957C57.2783 23.3128 56.1264 23.7808 56.0066 24.0495C55.9774 24.1154 56.3755 25.0328 56.374 26.613V28.4045C56.374 29.4094 56.1682 29.9731 55.0203 29.9333C53.8709 29.8945 53.7486 29.3199 53.7496 28.3149L53.7526 21.1056C53.7542 19.4903 54.3832 18.5326 54.3691 18.431C54.3671 18.4179 53.8764 18.0213 53.8769 17.734C53.8795 17.4486 54.3611 17.0511 54.3701 16.9978C54.3736 16.9776 53.7552 16.0466 53.7562 14.1092C53.7582 11.2966 53.7582 9.88911 53.7612 7.07655C53.7612 6.60956 53.8422 6.43242 54.0888 6.44047C54.3354 6.44852 54.4169 6.59446 54.4577 6.8813V7.85052C54.5724 7.85455 54.6293 7.85556 54.745 7.85857L55.1577 4.89656C54.665 4.87844 53.96 4.30778 53.8442 4.28262C53.7662 4.26299 52.9394 4.61324 52.2399 4.59764C51.908 4.58968 51.5778 4.54718 51.2546 4.47082C50.9325 4.39031 50.5974 4.19908 50.5566 4.20763C50.4832 4.22776 49.7349 4.77025 49.3237 4.76622C49.4208 5.94479 49.4722 6.53306 49.5703 7.71062C49.685 7.71314 49.7419 7.71314 49.8571 7.71415V6.88935C49.8571 6.38713 49.9387 6.24421 50.1037 6.24723C50.2678 6.25025 50.3911 6.35794 50.3911 6.86117C50.3901 9.7311 50.3901 11.1663 50.3901 14.0372C50.3891 15.3275 49.6035 16.8025 49.6101 16.8956C49.6101 16.9107 50.1012 17.4049 50.1012 17.656C50.1012 17.7632 50.0609 17.9056 49.9789 18.0123C49.8969 18.1184 49.5713 18.2976 49.5683 18.3298C49.5663 18.3434 50.3891 19.3826 50.3885 21.0322L50.3855 28.9611C50.3855 29.3566 50.305 29.4975 50.0992 29.495C49.8939 29.4915 49.8526 29.3496 49.8526 29.0974V28.0573L49.5245 28.0537C49.3947 29.2152 49.3282 29.7949 49.1964 30.9554C49.7288 30.9604 50.4615 31.7027 50.5491 31.7258C50.6266 31.7459 51.2058 31.3776 51.6975 31.3886C52.3537 31.4002 52.8916 31.517 53.4195 31.6428C53.9076 31.7585 54.4028 31.8144 54.978 31.833C55.2654 31.8441 55.5653 31.7625 55.8385 31.7213C56.1063 31.6815 56.372 31.6337 56.6175 31.6458C56.7821 31.6508 56.9487 31.6911 57.149 31.7389C57.312 31.7776 57.5787 31.9558 57.6411 31.9402C57.7699 31.9055 58.8791 31.3816 58.9123 31.3197C58.9123 31.3197 58.5047 30.4018 58.5062 28.7512L58.5067 26.7066C58.5077 25.129 58.9802 24.3011 58.9596 24.2176ZM43.4716 29.9313C42.6916 29.9439 42.3233 29.5931 42.3233 28.5877C42.3213 25.9326 42.3213 24.6051 42.3202 21.9505C42.3202 20.1923 42.9825 18.7973 42.9765 18.673C42.9739 18.6302 42.442 18.1451 42.442 17.8578C42.442 17.5714 42.9669 17.1291 42.976 17.0602C42.9785 17.036 42.3182 16.3194 42.3172 14.238C42.3172 11.4255 42.3172 10.0179 42.3162 7.20538C42.3162 6.30862 42.6438 5.94277 43.5059 5.92919C44.3679 5.91661 44.6155 6.31013 44.6155 7.13443C44.6155 9.97667 44.617 11.3968 44.617 14.238C44.617 15.6033 43.911 16.9676 43.9195 17.0813C43.9215 17.0954 44.4534 17.578 44.4534 17.8286C44.4534 18.0787 43.924 18.4848 43.9205 18.5532C43.9165 18.6015 44.6185 19.3705 44.6185 21.7362C44.6185 24.4637 44.6185 25.8259 44.6195 28.5519C44.6195 29.6299 44.2099 29.9207 43.4721 29.9313H43.4716ZM48.1477 13.8717C48.1487 11.2589 48.1487 9.95352 48.1487 7.34176C48.1487 4.7934 45.3346 3.9535 44.8626 4.19153C44.7287 4.25745 44.1641 4.55587 43.5471 4.56443C43.2603 4.56946 42.9231 4.54329 42.6851 4.47082C42.4828 4.40893 42.2579 4.26249 42.1909 4.23028C41.3304 3.82015 38.7825 5.93825 38.784 7.91192L38.7876 14.6215C38.7886 16.5926 38.0352 17.2906 38.0503 17.3742C38.0529 17.3847 38.5838 17.7848 38.5838 18.0384C38.5843 18.2865 38.0629 18.6574 38.0518 18.7369C38.0428 18.7973 38.7916 19.6442 38.7916 21.1152C38.7946 24.1426 38.7951 25.6568 38.7966 28.6838C38.7981 30.8024 41.7456 32.0388 42.2422 31.7459C42.4184 31.6438 42.8975 31.3756 43.4721 31.3675C43.759 31.3625 44.0156 31.3756 44.2506 31.4284C44.4429 31.4702 44.6417 31.6619 44.7428 31.7102C45.3099 31.9779 48.1467 30.5538 48.1477 27.2531V21.5842C48.1477 19.5391 48.894 18.516 48.8879 18.431C48.8844 18.4098 48.3545 17.9629 48.3545 17.7118C48.3545 17.4602 48.8799 16.9922 48.8879 16.9253C48.8929 16.8825 48.1482 16.2746 48.1482 13.8717H48.1477ZM37.1682 4.38729C37.1365 4.38226 36.3882 4.77729 35.8955 4.79994C35.647 4.81274 35.3979 4.789 35.1563 4.72949C34.9102 4.6696 34.6143 4.50102 34.5816 4.50857C34.5373 4.51964 33.8438 5.15773 33.4745 5.17887L33.4765 8.40659C33.64 8.39804 33.7231 8.392 33.8881 8.38395C33.9525 7.92097 33.9842 7.68999 34.0497 7.22803C34.0904 6.90244 34.2137 6.7877 34.3365 6.78317C34.5831 6.76807 34.5831 6.98446 34.5433 7.41623C34.2499 10.6173 34.104 12.2186 33.8126 15.4206C33.7321 16.2515 33.1901 17.2891 33.1987 17.5005C33.2037 17.6077 33.5686 18.0178 33.5696 18.3056C33.5696 18.593 33.1725 18.9498 33.1589 19.0821C33.1539 19.145 33.4065 19.5693 33.3663 20.4328C33.3018 21.872 33.2691 22.5907 33.2052 24.0299L32.9184 24.046C32.8515 22.6435 32.8182 21.9435 32.7523 20.541C32.7101 19.8264 33.0457 19.1647 33.0366 19.0897C33.0301 19.0404 32.5858 18.6146 32.5858 18.364C32.5858 18.1124 33.0759 17.5906 33.0759 17.5075C33.0759 17.4341 32.2964 16.4432 32.2124 14.6552L31.7947 7.46958C31.7947 7.146 31.8349 7.00157 31.9165 6.99553C32.0403 6.98698 32.1218 7.08913 32.1635 7.44593L32.2868 8.47906L32.6154 8.45641C32.6134 7.16613 32.6129 6.52199 32.6119 5.2297C31.9965 5.26845 31.4857 4.70533 31.4203 4.69527C31.3981 4.69325 30.3967 5.12301 29.6992 5.17384C29.3304 5.20051 28.9962 5.19447 28.6741 5.14465C28.3913 5.09986 28.0602 4.93078 28.0179 4.94587C27.9661 4.965 27.3637 5.71582 26.8308 5.76111L27.4498 8.86655C27.5806 8.85497 27.6465 8.84893 27.7774 8.83836L27.7754 7.51285C27.7754 7.3332 27.8982 7.21494 28.0204 7.20588C28.1845 7.19179 28.3083 7.25369 28.3501 7.78963L28.9348 16.3174C29.0178 17.3525 28.3878 18.0299 28.4044 18.1189C28.4104 18.1507 28.8976 18.438 28.8976 18.6896C28.8976 18.9402 28.4905 19.3478 28.4884 19.4032C28.4859 19.451 29.349 20.0906 29.5991 23.2997L30.2231 31.5804C30.5104 31.5577 31.0745 32.225 31.1249 32.2336C31.1359 32.2356 31.7393 31.8345 32.3528 31.7973C32.6809 31.7761 32.9803 31.7837 33.171 31.8179C33.4065 31.8587 33.6808 32.0796 33.7054 32.0745C33.708 32.0745 34.3194 31.2875 34.6465 31.2704C35.0853 27.2581 35.3047 25.2517 35.745 21.241C35.9076 19.6885 36.6901 18.9528 36.6861 18.901C36.6861 18.901 36.0701 18.4259 36.0701 18.1411C36.0701 17.8532 36.597 17.4728 36.6035 17.3973C36.6076 17.345 36.1909 16.4467 36.3545 14.8615C36.6468 11.7329 36.7943 10.1714 37.0877 7.04435C37.1289 6.79173 37.1697 6.68252 37.293 6.67799C37.4158 6.67296 37.4993 6.77612 37.4993 7.02724V8.13988L37.8687 8.12478C38.0478 6.86922 38.1384 6.2427 38.3181 4.98664C37.99 4.99821 37.2497 4.39786 37.1682 4.38779V4.38729ZM25.3236 21.6124L25.0373 21.638C25.0408 23.8613 23.7002 24.4234 23.6106 24.7183C23.5855 24.7998 23.9 25.838 23.9005 26.6628C23.902 27.6959 23.9025 28.2128 23.9055 29.2459C23.9075 30.824 23.662 31.0978 22.8855 31.1783C22.0285 31.2664 21.7009 31.051 21.6994 30.1904L21.6868 22.8367C21.6828 20.8278 21.6817 20.3593 22.3359 20.2909C22.581 20.2657 22.9086 20.4469 22.9096 20.7695C22.9096 21.0578 22.8593 21.2425 22.7466 21.4669C22.6208 21.7206 22.502 22.0688 22.503 22.4281C22.5045 23.0738 23.5085 23.3178 23.5266 23.2574C23.5266 23.2574 23.2805 22.8855 23.2805 22.6712C23.2805 22.4196 23.5724 22.179 24.0555 21.6959C24.3423 21.4096 24.5456 21.0739 24.5451 20.6432C24.5441 20.1409 24.2573 19.8113 23.8482 19.5627C24.2241 19.2829 24.4118 19.142 24.7872 18.8617C24.4264 18.6232 24.2462 18.5049 23.8864 18.2679C24.3358 17.972 24.5406 17.5951 24.5391 17.2011C24.5391 16.8417 24.2512 16.4377 24.0464 16.2781C23.6368 15.9611 23.4732 15.7618 23.4727 15.5469C23.4727 15.3321 23.6489 14.9803 23.6353 14.9571C23.6353 14.9571 22.5735 15.4584 22.5735 16.0341C22.5745 16.3209 22.652 16.6077 22.738 16.804C22.8115 16.9731 22.9026 17.0758 22.9041 17.3636C22.9041 17.5785 22.6998 17.9202 22.4139 17.9504C21.9636 17.9992 21.6767 17.886 21.6742 16.3073C21.6692 13.4525 21.6672 12.0253 21.6611 9.16899C21.6586 7.73327 22.0677 7.29445 22.7632 7.22249C23.5402 7.14197 23.8693 7.64822 23.8708 8.90479L23.8743 11.0938C23.8768 12.2779 23.4466 13.0378 23.4687 13.1073C23.4853 13.1606 24.9019 13.9376 24.9054 15.9113C25.0373 15.8972 25.1022 15.8922 25.2336 15.8801C25.23 13.8344 26.4967 13.1093 26.5802 12.8159C26.6003 12.7454 26.2913 11.8366 26.2903 10.9056L26.2843 7.45951C26.2843 6.41984 26.6567 5.72337 26.6506 5.70626C26.6506 5.70626 25.6502 5.17333 25.5848 5.15421C25.5355 5.14264 24.8893 5.57693 24.6025 5.6046C24.1113 5.65191 23.7822 5.54069 23.4556 5.50295C23.1285 5.4637 22.8004 5.42545 22.3093 5.47628C22.0224 5.50647 21.7356 5.5729 21.3682 5.72085C20.8982 5.91599 20.403 6.0439 19.8973 6.10079C19.5702 6.13903 19.2028 6.14658 18.9165 6.10733C18.6297 6.07059 18.3227 5.92365 18.2603 5.93875C18.1194 5.97096 17.5271 6.63673 16.9962 6.7414L17.3701 9.7789C17.4999 9.7628 17.5663 9.75475 17.6972 9.73965C17.6957 9.2651 17.6972 9.02808 17.6946 8.55505C17.7349 8.26166 17.8164 8.14491 18.0207 8.12025C18.1838 8.10012 18.2256 8.20228 18.2261 8.48912C18.2321 11.4587 18.2361 12.9447 18.2412 15.9153C18.2452 17.5649 17.4989 18.7636 17.512 18.8763C17.517 18.9196 18.0031 19.3171 18.0036 19.5325C18.0036 19.7841 17.5271 20.232 17.5155 20.311C17.5054 20.3785 18.2532 21.4393 18.2578 23.7702C18.2638 26.5264 18.2663 27.9033 18.2714 30.658C18.2719 31.0525 18.1913 31.207 17.9875 31.2321C17.7842 31.2578 17.7425 31.1169 17.7415 30.6871C17.7415 30.2272 17.7414 30.0002 17.7399 29.5423C17.5925 29.5584 17.5195 29.5685 17.3726 29.5876C17.2292 30.8965 17.1562 31.5517 17.0118 32.8626C17.4199 32.8802 18.1697 33.4504 18.2376 33.4614C18.2789 33.4665 18.8888 33.0236 19.2557 32.9783C19.7453 32.923 20.236 32.9366 20.6436 32.9632C21.0512 32.9889 21.4603 33.0865 21.95 33.0342C22.5629 32.9693 22.896 32.8319 23.2166 32.7232C23.4994 32.6281 23.829 32.4827 24.3604 32.4318C24.6055 32.4087 24.8098 32.4238 25.0146 32.4389C25.219 32.4565 25.5118 32.5999 25.5868 32.5652C25.6688 32.531 26.6788 31.9034 26.6889 31.8607C26.6889 31.8607 26.3215 31.3891 26.3185 29.6304C26.316 28.3542 26.3155 27.7135 26.3135 26.4369C26.312 25.5416 26.7815 24.5709 26.7598 24.4974C26.7382 24.4234 25.3277 23.9791 25.3236 21.6124ZM8.57107 34.5655L8.54591 25.5074C8.54088 23.6691 9.38128 22.3934 9.35108 22.2822C9.34806 22.2721 8.53585 21.6078 8.53585 21.3819C8.53434 21.1152 9.38933 20.4283 9.39637 20.3452C9.39637 20.3452 8.52931 19.3644 8.52427 17.4819C8.51471 14.0574 8.51069 12.3439 8.50163 8.91838C8.4966 7.21444 8.85037 6.39065 10.0204 6.20697C11.2936 6.00769 11.4999 6.7414 11.5034 8.44534L11.525 16.965C11.5301 18.8043 10.6781 19.9547 10.7184 20.1374C10.745 20.2587 11.3303 20.7619 11.3313 21.0769C11.3328 21.3915 10.5704 22.0129 10.5704 22.0894C10.5704 22.0894 11.5401 23.1538 11.5447 25.0806C11.5547 28.6873 11.5598 30.4889 11.5688 34.094C11.5739 35.8865 11.0656 36.1854 10.0999 36.3374C9.18552 36.4808 8.5756 36.358 8.57057 34.566L8.57107 34.5655ZM16.6263 19.1254C16.6338 19.0575 15.8589 18.1028 15.8533 15.6818C15.8463 12.5069 15.8438 10.9212 15.8357 7.74484C15.8307 5.19095 13.6799 3.62187 10.4723 4.11856C9.5564 4.26098 8.99077 4.34804 8.43722 4.53222C7.93046 4.7008 7.11523 5.11093 6.40467 5.23372C5.8964 5.32179 4.60411 5.02538 4.47276 5.08124C4.38621 5.11899 3.56242 6.10029 2.85286 6.27994L3.32087 9.8257C3.50354 9.79249 3.59563 9.77538 3.7778 9.74015C3.7778 9.34612 3.77579 9.14836 3.77478 8.75433C3.77176 7.94765 3.82259 7.75793 4.07521 7.71264C4.33035 7.66533 4.38067 7.74786 4.38269 8.46346L4.41137 17.6092C4.41741 19.7615 3.43108 20.9823 3.45875 21.2395C3.47083 21.3603 4.01885 21.8987 4.01935 22.1674C4.02036 22.482 3.46429 23.0567 3.46429 23.2116C3.4653 23.3163 4.432 24.3791 4.43754 26.3961L4.46823 36.1255C4.46974 36.7546 4.36809 36.9519 4.06464 37.0052C3.7612 37.0621 3.65904 36.902 3.65703 36.2735L3.6535 34.9752C3.51159 35.0008 3.44064 35.0129 3.29873 35.0406L2.95703 39.0096C3.46278 38.8687 4.36457 39.5118 4.4788 39.5334C4.55932 39.549 5.43897 38.9109 5.99554 38.8128C6.7061 38.6885 7.314 38.6754 8.07489 38.683C8.83577 38.691 9.70033 38.6402 10.8678 38.4621C12.7982 38.1641 15.9016 36.892 15.8911 32.4082C15.886 29.5196 15.882 28.0774 15.876 25.1883C15.8699 22.5881 16.6509 21.2858 16.6313 21.1877C16.6238 21.1484 15.9655 20.5133 15.9655 20.2421C15.9655 19.9739 16.6102 19.2849 16.6263 19.1254ZM91.965 40.1856C91.8623 40.2158 91.657 40.2943 91.2544 40.5011C91.0883 40.5867 90.9157 40.6748 90.6596 40.6974C90.1715 40.7009 89.9229 40.5414 89.7417 40.4241C89.6869 40.3894 89.558 40.3059 89.5052 40.2832C89.3648 40.2319 89.1806 40.1977 89.0171 40.1665C88.7076 40.163 88.4736 40.1816 88.2859 40.1947C88.1188 40.2078 87.9839 40.2158 87.9115 40.2158C87.8309 40.2158 87.5864 40.2158 87.3161 40.083C87.0016 39.935 86.8335 39.7015 86.6015 39.3784C86.5487 39.3043 86.4952 39.2306 86.441 39.1575L84.8105 38.9477C84.6097 38.9613 84.1272 39.1656 83.9661 39.2345C83.7377 39.3306 83.5736 39.4006 83.3607 39.4278C82.8278 39.4378 82.5616 39.2919 82.2536 39.1233C82.1067 39.0428 81.924 38.9426 81.7992 38.8958C81.5054 38.785 81.201 38.7042 80.8909 38.6548C80.4128 38.6477 79.9222 38.7273 79.6293 38.7756C79.3832 38.8148 79.2473 38.837 79.1009 38.837L78.7944 38.8017C78.4895 38.7262 78.3189 38.5929 77.9782 38.3292C77.8026 38.1933 77.3557 37.8466 77.1433 37.7344L75.9607 37.5824L76.315 35.3128L76.4096 34.709C76.1821 34.6617 75.9985 34.5655 75.844 34.4825C75.5697 34.3743 75.4454 34.3401 75.3136 34.324C74.91 34.3074 74.7862 34.3245 74.6443 34.3441C74.5849 34.3527 74.3504 34.3819 74.3504 34.3819C74.1481 34.4075 73.896 34.4397 73.5623 34.4397C73.3565 34.4397 73.1467 34.4277 72.9217 34.4025C72.4472 34.3491 72.0521 34.2163 71.7351 34.1091C71.6264 34.0729 71.5197 34.0361 71.413 34.0064C71.1262 33.9249 70.7075 33.8152 70.3074 33.7684C70.2093 33.7906 70.0322 33.859 69.9612 33.8872C69.7836 33.9551 69.6004 34.0256 69.3473 34.0256L69.0509 33.9908C68.7313 33.9154 68.5411 33.7533 68.2814 33.5314C68.1677 33.4343 67.8763 33.1857 67.7339 33.1021L66.736 32.8405L65.4346 32.9331L64.5555 32.8691C64.4759 32.942 64.4 33.0187 64.328 33.0991L64.0165 33.4589L63.4615 33.5349C62.9401 33.5354 62.6583 33.32 62.523 33.2164C62.3418 33.1258 62.1787 33.0986 61.9442 33.084C61.7792 33.084 61.59 33.1364 61.357 33.24C61.2548 33.2853 61.0656 33.3689 60.7959 33.3689L60.51 33.3356C60.109 33.2425 59.8951 33.005 59.7059 32.7952C59.6611 32.7459 59.5806 32.6568 59.5061 32.5803C58.9987 32.7953 58.483 32.99 57.9602 33.164L57.6331 33.2058C57.2989 33.2058 57.0478 33.0805 56.8641 32.9894C56.7091 32.9346 56.609 32.9114 56.5723 32.9099C56.4454 32.9089 56.2854 32.9336 56.1309 32.9572C55.9618 32.9824 55.8974 32.9944 55.832 33.0075C55.6121 33.0483 55.3378 33.0991 55.0324 33.0991C54.2559 33.0765 53.6812 33.005 53.1301 32.8742C52.646 32.7594 52.2047 32.6633 51.6758 32.6543C51.5968 32.6628 51.3724 32.7625 51.2762 32.8052C51.0689 32.8973 50.854 32.9924 50.5566 32.9924L50.2396 32.9527C49.9412 32.8737 49.7645 32.7298 49.5778 32.5768C49.4883 32.5038 49.2326 32.295 49.0852 32.2195L47.7848 32.2084L47.8804 31.368C46.9218 32.4439 45.7201 33.007 44.9179 33.007C44.6718 33.0098 44.4282 32.9576 44.2048 32.854C44.0898 32.7973 43.9803 32.7299 43.8778 32.6528C43.7784 32.6369 43.6779 32.6302 43.5773 32.6326C43.371 32.6351 43.1657 32.6719 42.8758 32.8405C42.6373 32.9814 42.3515 33.0543 42.0314 33.0543C41.2665 33.0543 40.2097 32.6246 39.3381 31.9603L35.7843 32.4786L35.0013 32.5189C34.8932 32.6264 34.7914 32.74 34.6963 32.8591L34.3179 33.3271L33.8463 33.3372C33.331 33.3402 33.0824 33.1827 32.9486 33.0976C32.6175 33.0508 32.5269 33.0543 32.4328 33.0599C32.3754 33.0634 32.1701 33.0911 31.7942 33.3085C31.6965 33.3653 31.4671 33.4977 31.1289 33.4987C30.515 33.4162 30.2784 33.1832 30.1053 33.0136C30.0564 32.9652 30.0069 32.9174 29.9569 32.8702L29.0611 32.9406L26.8368 33.2863C26.2632 33.6487 26.1484 33.701 26.08 33.7297C25.9154 33.8001 25.7393 33.8353 25.5556 33.8353C25.3146 33.8353 25.1163 33.7735 24.9568 33.7246C24.8466 33.6987 24.7338 33.6854 24.6206 33.6849C24.1929 33.7186 24.0042 33.786 23.7858 33.864L23.51 33.9596C23.195 34.0704 22.7637 34.2198 22.0828 34.2928C21.9419 34.3073 21.8003 34.3143 21.6586 34.3139C21.3622 34.3139 21.1066 34.2842 20.8806 34.2576C20.7739 34.2455 20.6698 34.2324 20.5651 34.2259C20.3725 34.2126 20.1794 34.2059 19.9864 34.2057C19.7971 34.2057 19.621 34.2128 19.4605 34.2294C19.3473 34.2752 19.1273 34.409 19.0509 34.4558C18.8415 34.5826 18.6045 34.7266 18.2386 34.7266C17.7581 34.6647 17.5819 34.5514 17.3771 34.4196C17.3067 34.3743 17.1366 34.2656 16.9947 34.1881C16.1729 38.5567 12.3347 39.5158 11.0596 39.7136C10.0048 39.8746 9.10601 39.9501 8.22888 39.9501C8.22888 39.9501 7.859 39.9466 7.76138 39.9466C7.21839 39.9466 6.74686 39.9667 6.21294 40.0593C6.04989 40.0981 5.60604 40.3587 5.43947 40.4574C5.10231 40.6551 4.85874 40.798 4.48333 40.7986C4.01533 40.7336 3.84976 40.6405 3.65803 40.5323C3.56242 40.4785 3.29923 40.3311 3.13769 40.2722L1.54346 40.716L2.12368 33.9808L3.19909 33.7709L3.17594 26.4001C3.17242 25.1234 2.69284 24.3711 2.48802 24.05C2.36876 23.8628 2.20621 23.6072 2.20219 23.2237C2.20219 22.7919 2.39341 22.4794 2.58011 22.2077C2.40448 21.9767 2.23993 21.7266 2.20319 21.3673C2.1579 20.9446 2.31894 20.6099 2.48903 20.2562C2.73762 19.7414 3.15329 18.8793 3.14977 17.6127L3.12964 11.1472L2.24446 11.3097L1.45388 5.32783L2.54438 5.05306C2.64654 5.01935 2.88658 4.86687 3.41246 4.34351C3.5911 4.16486 3.73251 4.02396 3.97205 3.92079C4.14868 3.8443 4.33035 3.81008 4.53265 3.81008C4.72388 3.81008 4.9463 3.84128 5.25378 3.88557C5.54464 3.92734 5.9432 3.9847 6.16865 3.9847C6.53853 3.92683 6.99244 3.74215 7.39301 3.5796C7.62148 3.48701 7.83736 3.39844 8.03866 3.33151C8.69185 3.11512 9.32089 3.01699 10.2735 2.86904C10.718 2.79929 11.1672 2.76345 11.6171 2.76185C13.9426 2.76185 15.7587 3.83373 16.5941 5.53113C16.8366 5.45263 17.0737 5.25435 17.1778 5.1678C17.4143 4.96953 17.6383 4.78232 17.983 4.70483L18.2703 4.67212C18.5069 4.67212 18.6915 4.73351 18.8551 4.78786C19.154 4.86234 19.2476 4.86838 19.3483 4.86838C19.8816 4.86122 20.4087 4.75171 20.9007 4.54581C21.309 4.37619 21.7394 4.26571 22.1789 4.2177C22.3817 4.19656 22.573 4.1865 22.7647 4.1865C23.1019 4.1865 23.3802 4.21921 23.6031 4.24588C23.7168 4.25896 23.8331 4.27909 23.9533 4.30023C24.1093 4.32841 24.2331 4.35055 24.364 4.35055C24.4918 4.30275 24.6589 4.20965 24.7374 4.16536C25.0026 4.01641 25.2315 3.88859 25.5828 3.88859L25.9054 3.92935C26.0543 3.97363 26.1132 3.99175 26.8087 4.3586C26.8804 4.29301 26.95 4.22521 27.0175 4.1553C27.1443 4.02547 27.3018 3.86342 27.5776 3.76026L27.7905 3.68075C28.2786 3.68075 28.4698 3.75221 28.6384 3.81562C28.6988 3.83776 28.8236 3.88506 28.8734 3.89513C28.9992 3.91526 29.1376 3.92532 29.2911 3.92532C29.3933 3.92532 29.4989 3.92029 29.6081 3.91224C29.7833 3.89966 30.1456 3.82568 30.8702 3.54991C31.0242 3.49103 31.1838 3.43014 31.4203 3.43014C31.9592 3.49758 32.1822 3.67723 32.316 3.78442C32.3668 3.82568 32.4962 3.93035 32.5747 3.96306L32.8751 3.94595L33.253 3.9223C33.3441 3.86695 33.4845 3.76278 33.6722 3.61231C33.8333 3.48349 33.9998 3.35063 34.2776 3.28119L34.5846 3.24344C34.8739 3.24344 35.0808 3.33755 35.2473 3.41354C35.3012 3.43769 35.4139 3.48902 35.4602 3.5021C35.5583 3.52576 35.662 3.53834 35.7672 3.53834C35.893 3.53079 36.0676 3.48902 36.5261 3.28471C36.7052 3.2047 36.8904 3.12217 37.1677 3.12217C37.6493 3.1735 37.8576 3.3139 38.0986 3.47644C38.1817 3.5328 38.3518 3.64754 38.471 3.71447L39.782 3.66616L39.7548 3.85638C40.3184 3.40347 41.115 2.91383 41.9373 2.91383C42.2226 2.91383 42.4898 2.9722 42.7324 3.08744C42.9317 3.19614 43.0248 3.24999 43.065 3.26508C43.0937 3.27313 43.2548 3.30031 43.4812 3.30031C43.7283 3.29679 43.9794 3.21979 44.2753 3.07084C44.5276 2.94611 44.8061 2.88332 45.0875 2.88766C45.8826 2.88766 46.9057 3.28169 47.6948 3.89161C47.8055 3.97715 47.9071 4.06874 48.0078 4.16184L47.9524 3.48751L49.2346 3.50009C49.3333 3.46034 49.5024 3.36623 49.7399 3.2203C49.906 3.11764 50.0368 3.03712 50.2341 2.98478L50.5596 2.94251C50.8475 2.94251 51.0548 3.0346 51.2375 3.11613C51.3316 3.1584 51.474 3.22181 51.5621 3.24344C51.7932 3.29735 52.0293 3.32719 52.2666 3.33252C52.5776 3.33252 52.9998 3.20419 53.2268 3.13525C53.4532 3.06631 53.6168 3.01649 53.8362 3.01649L54.1245 3.0492C54.3716 3.10556 54.5478 3.21778 54.7506 3.34761C54.8562 3.41505 55.125 3.58665 55.2588 3.63445L56.6009 3.68327C56.6503 3.70491 56.7232 3.64452 56.8203 3.55595C56.925 3.46084 57.08 3.32044 57.3291 3.23388L57.7498 3.16242C58.0734 3.16242 58.2983 3.27615 58.4976 3.3768C58.56 3.4085 58.6914 3.47493 58.7442 3.49103C58.9611 3.55243 59.1986 3.58765 59.4925 3.60376C59.9454 3.60476 60.5392 3.45379 60.7345 3.40498C60.8693 3.37026 60.9861 3.34057 61.1506 3.34057C61.7646 3.4392 61.9835 3.64251 62.1284 3.77586C62.1863 3.82921 62.3569 3.98722 62.453 4.02999L63.1178 4.07528C63.1912 4.03704 63.31 3.96558 63.5043 3.83373C63.6442 3.73812 63.8183 3.61885 64.094 3.57054C64.6692 3.55192 64.9148 3.69635 65.0945 3.80203C65.1513 3.83474 65.2696 3.90419 65.3189 3.92331C65.4538 3.97363 65.5896 4.00383 65.7215 4.01439C65.8257 4.01439 66.0501 3.96005 66.3807 3.85437C66.5367 3.80455 66.6837 3.75724 66.8915 3.75724L67.1607 3.78593C67.4783 3.85386 67.6846 4.01842 67.9412 4.22424C68.0152 4.28312 68.1541 4.39383 68.2688 4.47686C68.3781 4.42352 68.5164 4.33898 68.5869 4.2957C68.7982 4.16486 69.0166 4.02949 69.3367 3.99577C69.8319 3.98823 70.0895 4.13265 70.2964 4.2484C70.3628 4.28564 70.4861 4.35458 70.5394 4.37269C70.714 4.43459 70.9802 4.48894 71.2374 4.51612C71.6106 4.55823 71.9881 4.54279 72.3566 4.47032C72.7865 4.3873 73.2265 4.37033 73.6615 4.42C74.283 4.49045 74.7152 4.63639 75.063 4.75213C75.1767 4.79088 75.2894 4.83416 75.4042 4.88045C75.5692 4.94587 75.7061 5.00022 75.855 5.03142C75.9426 5.00677 76.0699 4.96298 76.1394 4.93933C76.2833 4.89052 76.4151 4.84774 76.5586 4.82359L76.2063 1.87868L77.9681 2.37185C78.0476 2.36531 78.267 2.32354 78.7491 2.09859C78.8578 2.04827 78.9907 1.98637 79.1708 1.95769C79.7823 1.94159 80.0495 2.1303 80.2256 2.2551C80.3011 2.30844 80.4571 2.41865 80.5376 2.45388C80.7062 2.52684 81.0011 2.60686 81.2346 2.64158C81.8571 2.73216 82.397 2.7387 82.9863 2.7387C83.0925 2.7387 83.2027 2.73568 83.321 2.73216C83.4825 2.72713 83.6566 2.7221 83.8494 2.7221C84.4286 2.7221 84.9801 2.7689 85.5855 2.86904C88.6839 3.37932 91.972 5.95536 91.9589 9.72506C91.9524 12.1129 91.9474 13.6508 91.9413 15.5489L91.9333 18.1079C91.9272 19.9502 90.9756 21.2249 90.1065 22.0059C90.9339 22.9223 91.9131 24.3077 91.9081 25.9543L91.8829 33.8706L92.7133 34.0366L92.9246 35.6671C93.0655 36.7516 93.1612 37.4928 93.3232 38.7575L93.5451 40.4916L91.964 40.1861L91.965 40.1856ZM94.5747 38.5959C94.4303 37.4687 94.3387 36.7561 94.221 35.8463L94.1767 35.5041L93.9653 33.8736C93.9359 33.6442 93.8442 33.4273 93.7001 33.2464C93.556 33.0655 93.3651 32.9275 93.1481 32.8475L93.1707 25.9583C93.1742 24.6529 92.7083 23.3485 91.7838 22.0688C92.7062 20.9184 93.1903 19.5708 93.1954 18.1119L93.2039 15.5525L93.2059 14.9249C93.211 13.298 93.216 11.8477 93.2215 9.72808C93.2366 5.25939 89.404 2.21484 85.7903 1.61952C85.149 1.51102 84.4998 1.45648 83.8494 1.45647C83.6441 1.45647 83.4579 1.4615 83.2847 1.46654C83.165 1.47006 83.0744 1.47308 82.9868 1.47308C82.4272 1.47308 81.9567 1.46654 81.4152 1.38803C81.3009 1.36948 81.1882 1.34205 81.0781 1.30601C80.7228 1.05741 80.1833 0.675961 79.3711 0.675961C79.193 0.675961 79.123 0.681496 79.0541 0.693574C78.6198 0.764026 78.3601 0.884802 78.2202 0.949215C78.1166 0.997022 78.0345 1.03275 77.9711 1.05791L76.5455 0.658851C76.3456 0.603138 76.1351 0.597595 75.9326 0.642715C75.7301 0.687835 75.5418 0.782223 75.3845 0.917512C75.2271 1.0532 75.1054 1.2255 75.0302 1.41925C74.955 1.61301 74.9286 1.82228 74.9533 2.02865L75.1223 3.44021C74.6928 3.30532 74.2513 3.21229 73.8039 3.16242C73.5905 3.13777 73.3862 3.12619 73.1779 3.12619C72.8357 3.12619 72.4935 3.1584 72.1311 3.22482C71.8799 3.27516 71.6223 3.28585 71.3677 3.25653C71.243 3.24393 71.1194 3.22206 70.9979 3.19111C70.6491 2.99585 70.1615 2.7231 69.4731 2.7231C68.8702 2.77242 68.5985 2.86401 68.376 2.96667C68.0936 2.76642 67.774 2.62474 67.436 2.54999C67.2282 2.50219 67.1331 2.49111 67.0374 2.49111C66.4864 2.49111 66.192 2.58572 65.9968 2.64812C65.9164 2.67458 65.8354 2.69892 65.7537 2.72109C65.4986 2.57163 65.0119 2.2858 64.3124 2.2858C64.1288 2.2863 64.0568 2.29234 63.9863 2.30492C63.3976 2.40758 63.0664 2.60484 62.8667 2.7382C62.5233 2.429 62.1036 2.21721 61.6509 2.12476C61.3761 2.07947 61.3122 2.07494 61.2483 2.07494C60.8306 2.07494 60.5966 2.13382 60.4265 2.1766C59.8498 2.32354 59.6233 2.33864 59.5529 2.33864C59.4175 2.33329 59.2829 2.31663 59.1503 2.28882C58.8071 2.1152 58.3738 1.8963 57.7503 1.8963C57.3759 1.8973 57.2325 1.92246 57.0966 1.97178C56.6185 2.14288 56.3941 2.28026 56.2301 2.40305L55.5884 2.3799C55.1778 2.11923 54.8653 1.91944 54.4043 1.81427C54.1834 1.76143 54.0858 1.75036 53.9882 1.75036C53.4296 1.75036 53.1276 1.84245 52.8609 1.92397C52.5645 2.01455 52.3678 2.06186 52.2737 2.06588C52.1464 2.06133 52.0197 2.04669 51.8947 2.0221C51.5133 1.85352 51.1162 1.67638 50.5602 1.67638C50.3337 1.67689 50.2461 1.68645 50.1606 1.70456C49.5346 1.86057 49.2825 2.01657 49.0802 2.14087C49.0414 2.16502 48.6695 2.1922 47.965 2.22138C47.809 2.22138 47.6681 2.24554 47.5342 2.29234C46.728 1.86811 45.8514 1.62153 45.0885 1.62153C44.5933 1.62153 44.1384 1.72419 43.7363 1.92599C43.5819 2.00348 43.5079 2.02663 43.4812 2.03368C42.8622 1.74734 42.4123 1.6477 41.9378 1.6477C41.1779 1.6477 40.3959 1.90233 39.6068 2.40607L38.8168 2.43526C38.5108 2.22893 38.1127 1.96021 37.5285 1.88221C37.409 1.86603 37.2887 1.85729 37.1682 1.85604C36.6227 1.85604 36.2412 2.02613 36.0133 2.12778C35.8915 2.18314 35.8009 2.21987 35.7365 2.24503C35.51 2.14288 35.1185 1.97732 34.5851 1.97732C34.3239 1.97782 34.2228 1.9904 34.1231 2.01506C33.4287 2.18817 33.0885 2.46042 32.8857 2.62296C32.4794 2.34734 32.0052 2.18858 31.5149 2.16401C30.9533 2.16401 30.6216 2.29033 30.4234 2.36581C29.75 2.62246 29.5216 2.64913 29.5125 2.64963C29.2368 2.65869 29.1864 2.65668 29.1416 2.65265C28.8679 2.54899 28.5086 2.41362 28.025 2.41362C27.6375 2.41563 27.49 2.4428 27.3511 2.49464C26.932 2.65064 26.7593 2.74525 26.6144 2.84187C26.5122 2.79566 26.4067 2.75698 26.2989 2.72612C26.2591 2.71405 26.163 2.69039 26.009 2.65416C25.9166 2.63268 25.8221 2.62187 25.7272 2.62195C24.917 2.62195 24.4707 2.86501 24.143 3.04869C24.0129 3.02453 23.882 3.00439 23.7505 2.98831C23.4238 2.94524 23.0947 2.92255 22.7652 2.92037C22.5307 2.92037 22.2962 2.93295 22.0496 2.95811C21.5016 3.01548 20.9878 3.14632 20.4302 3.37076C20.1672 3.48261 19.8891 3.55518 19.6049 3.58614C19.3286 3.60174 19.312 3.60124 19.2984 3.60124C19.0478 3.51821 18.7097 3.40599 18.2708 3.40599C18.0207 3.4075 17.9307 3.41807 17.8421 3.43819C17.4023 3.53783 17.1527 3.64855 16.9428 3.77284C15.722 2.32706 13.8203 1.49572 11.6171 1.49572C11.1214 1.49572 10.6046 1.53699 10.0823 1.61751C9.10098 1.76998 8.39444 1.87969 7.64211 2.12929C7.40358 2.20981 7.17159 2.30341 6.92601 2.40305C6.66937 2.50772 6.30805 2.65466 6.08914 2.71505C5.87039 2.6931 5.65224 2.66541 5.43494 2.63202C5.08671 2.5822 4.81446 2.54345 4.53315 2.54345C4.15724 2.54345 3.81202 2.61239 3.47788 2.75531C3.01339 2.9566 2.74215 3.22734 2.52425 3.44373C2.28321 3.68377 2.13777 3.80908 2.06178 3.86896L1.14641 4.10045C0.845718 4.1767 0.583523 4.36077 0.409656 4.61767C0.23579 4.87457 0.162371 5.1864 0.203353 5.49389L0.993426 11.4758C1.02476 11.7154 1.12414 11.9411 1.27977 12.126C1.43541 12.3108 1.64078 12.4472 1.87156 12.519L1.88716 17.6172C1.89018 18.592 1.57919 19.2356 1.35273 19.7061C1.14641 20.1339 0.864599 20.7196 0.948135 21.5042C0.975813 21.7779 1.04274 22.0175 1.1303 22.2288C1.00437 22.5456 0.939652 22.8834 0.93958 23.2242C0.947128 23.9816 1.2692 24.4878 1.42369 24.7309C1.59479 24.9986 1.91182 25.4958 1.91333 26.4041L1.93346 32.7298C1.32958 32.8465 0.914419 33.309 0.865605 33.8726L0.285883 40.6073C0.268236 40.8108 0.300018 41.0155 0.378525 41.2041C0.457031 41.3927 0.579937 41.5594 0.736778 41.6903C0.89327 41.8208 1.07915 41.9114 1.2784 41.9542C1.47766 41.997 1.68433 41.9907 1.88062 41.9359L3.01289 41.6203C3.2796 41.7713 3.57953 41.9404 4.00677 42.0194C4.19951 42.0566 4.27952 42.0647 4.36004 42.0647C5.20094 42.0647 5.68656 41.7783 6.07656 41.5489C6.33824 41.3949 6.47562 41.3214 6.54557 41.2872C6.94514 41.2253 7.3125 41.2122 7.76087 41.2122C7.85699 41.2122 8.21932 41.2147 8.21982 41.2147C9.16992 41.2147 10.1301 41.1352 11.2493 40.9636C12.4928 40.7724 16.3067 39.8691 17.8054 35.955C18.0736 35.9902 18.1204 35.9922 18.1677 35.9922C18.9557 35.9912 19.4424 35.6968 19.7035 35.5383C19.8671 35.4714 19.9255 35.4703 19.9854 35.4703C20.1323 35.4703 20.2953 35.4764 20.4836 35.4885C20.9818 35.5438 21.2887 35.58 21.6581 35.58C21.8493 35.58 22.031 35.571 22.2152 35.5509C22.7988 35.4912 23.3727 35.3583 23.9231 35.1553C23.9231 35.1553 24.1496 35.0773 24.21 35.0557C24.4052 34.9857 24.4732 34.9636 24.5975 34.9515C24.8476 35.0139 25.1621 35.101 25.5551 35.101C25.9094 35.101 26.2526 35.031 26.5742 34.8946C26.698 34.8413 26.8368 34.7754 27.2847 34.4976L29.2071 34.1987L29.504 34.1755C29.853 34.467 30.274 34.6592 30.7228 34.7321C30.8909 34.7593 30.9578 34.7643 31.0257 34.7643C31.8062 34.7623 32.2722 34.4931 32.4247 34.4045C32.8223 34.4634 33.2103 34.6058 33.7044 34.6058C33.8136 34.6058 34.0275 34.6013 34.345 34.5917C34.5281 34.5878 34.7081 34.544 34.8724 34.4633C35.0368 34.3827 35.1816 34.2671 35.2967 34.1247L35.5956 33.7553C35.888 33.7402 35.9267 33.7362 35.9655 33.7307L39.0236 33.2848C40.016 33.931 41.1306 34.3195 42.0309 34.3195C42.5784 34.3195 43.0776 34.1886 43.5144 33.932C44.0494 34.1806 44.4706 34.2722 44.9174 34.2722C45.6994 34.2722 46.5887 33.9581 47.4175 33.4192C47.5317 33.4544 47.6515 33.4735 47.7733 33.4745L48.6861 33.4821C49.0092 33.7453 49.3554 34.0271 49.916 34.1765C50.1958 34.2455 50.2975 34.2581 50.3991 34.2581C51.1197 34.2581 51.5213 34.0804 51.786 33.9627C52.1841 33.9546 52.488 34.022 52.8378 34.1056C53.4744 34.2565 54.126 34.3381 54.8894 34.3622C55.4541 34.3647 55.8204 34.2968 56.0625 34.2515C56.3528 34.2032 56.3976 34.1962 56.4404 34.1901C56.8113 34.3728 57.2187 34.4691 57.6321 34.4719C57.9159 34.4699 58.02 34.4568 58.1212 34.4297C58.4824 34.3292 58.8352 34.2008 59.1765 34.0457C59.4798 34.2998 59.8387 34.4787 60.2242 34.5681C60.4587 34.6234 60.5543 34.634 60.6504 34.634C61.3318 34.634 61.7203 34.4619 61.8667 34.3975C62.2276 34.5459 62.7152 34.8005 63.3744 34.8005C63.4705 34.8005 63.7418 34.7714 64.1861 34.713C64.4895 34.6718 64.7675 34.5215 64.9682 34.2903L65.3426 34.1952C65.4231 34.1977 65.8483 34.1715 66.6172 34.1172L67.1889 34.2681C67.2493 34.3149 67.3359 34.3869 67.4622 34.4951C67.7661 34.7537 68.1415 35.0738 68.7514 35.2207C68.9855 35.2786 69.0876 35.2912 69.1903 35.2912C69.8344 35.2912 70.1821 35.1573 70.4131 35.0688C70.6567 35.1105 70.8937 35.1744 71.0688 35.2248C71.1498 35.2469 71.2273 35.2736 71.3064 35.3003C71.6873 35.4286 72.1724 35.5921 72.7808 35.6601C73.0401 35.6898 73.3008 35.7049 73.5618 35.7054C73.9745 35.7054 74.2825 35.6661 74.5079 35.6374C74.5079 35.6374 74.7545 35.6072 74.8164 35.5977C74.8707 35.5906 74.8365 36.1864 74.7142 37.3861C74.6878 37.5531 74.6952 37.7237 74.7359 37.8877C74.7766 38.0518 74.8498 38.206 74.9512 38.3413C75.0521 38.4766 75.1792 38.5902 75.3248 38.6755C75.4705 38.7607 75.6318 38.8158 75.7992 38.8375L76.705 38.9542C76.8031 39.0247 76.9596 39.1394 77.2042 39.3286C77.5927 39.6306 77.9263 39.8897 78.4895 40.0301C78.7688 40.0925 78.8603 40.1021 78.9524 40.1021C79.349 40.1021 79.5513 40.0699 79.8306 40.0241C80.0525 39.9878 80.5099 39.9139 80.747 39.9134C80.9246 39.9426 81.15 40.005 81.3619 40.0835C81.4102 40.1036 81.5707 40.1917 81.6488 40.2344C82.0101 40.4322 82.5047 40.7034 83.1972 40.7034C83.2913 40.7034 83.3985 40.6964 83.5177 40.6833C83.9027 40.6345 84.1845 40.5152 84.4568 40.3995C84.651 40.317 84.7788 40.2687 84.8609 40.239L85.7773 40.3899C86.0148 40.6969 86.3067 41.0044 86.7711 41.2253C87.1219 41.3954 87.5059 41.4819 87.9109 41.4819C87.9804 41.4819 88.0961 41.4789 88.38 41.4573C88.544 41.4447 88.7423 41.4301 88.8787 41.4286C89.2999 41.645 89.8001 41.9671 90.5529 41.9671C91.2685 41.9152 91.6188 41.7361 91.8281 41.6289C91.9348 41.5735 92.0208 41.5313 92.0898 41.4991L93.3076 41.7341C93.8632 41.7567 94.1732 41.6359 94.4097 41.4135C94.5553 41.2763 94.6663 41.1065 94.7337 40.9181C94.801 40.7297 94.8228 40.528 94.7972 40.3295L94.5742 38.5959H94.5747Z" fill="black"/>
<path fill-rule="evenodd" clip-rule="evenodd" d="M71.6259 39.9929V42.6626H74.1562V43.2916H70.8258V39.9929H71.6259ZM62.608 39.9929H63.5944L65.3386 43.2911H64.5299L64.153 42.5805H62.0449L61.668 43.2911H60.8593L62.608 39.9929ZM62.372 41.952H63.8168L63.0947 40.5988L62.372 41.9525V41.952ZM52.3376 40.6215V39.9929H56.2714V40.622H54.7043V43.2911H53.9047V40.6215H52.3376ZM45.9466 43.2911V39.9924H46.7457V43.2911H45.9461H45.9466ZM37.6689 42.0516V41.4146H40.1498V41.6058C40.1498 42.11 39.9526 42.5232 39.5591 42.8452C39.3343 43.0235 39.0786 43.1586 38.8047 43.2438C38.4917 43.3423 38.1651 43.3907 37.837 43.3872C37.5226 43.39 37.2099 43.3416 36.9111 43.2438C36.6414 43.1565 36.3903 43.02 36.1703 42.8412C35.7914 42.5247 35.6022 42.1236 35.6022 41.6375C35.6022 41.401 35.651 41.1816 35.7481 40.9793C35.8447 40.778 35.9866 40.5988 36.1748 40.4438C36.3955 40.2644 36.6473 40.1269 36.9176 40.0382C37.2139 39.9393 37.5246 39.89 37.837 39.8923C38.2703 39.8923 38.6472 39.9587 38.9683 40.0911C39.277 40.2136 39.548 40.4155 39.7538 40.6763L38.9235 40.9682C38.7892 40.8264 38.6252 40.7159 38.4434 40.6446C38.2487 40.5692 38.0413 40.5319 37.8325 40.5349C37.6176 40.5349 37.4218 40.5631 37.2447 40.6195C37.0797 40.6689 36.9249 40.7477 36.7878 40.8519C36.665 40.945 36.5641 41.0639 36.4924 41.2002C36.4223 41.3354 36.3864 41.4857 36.3877 41.638C36.3877 41.9837 36.5487 42.2635 36.8693 42.4759C36.9936 42.5574 37.138 42.6233 37.3036 42.6721C37.477 42.7219 37.6566 42.7463 37.837 42.7446C38.0036 42.7446 38.1621 42.728 38.312 42.6948C38.462 42.6611 38.5979 42.6143 38.7207 42.5513C38.8435 42.4889 38.9512 42.4155 39.0432 42.3299C39.1353 42.2449 39.2093 42.1528 39.2637 42.0516H37.6689ZM28.9157 43.2916V39.9929H29.7149V43.2916H28.9157ZM22.492 40.4559C22.6646 40.6034 22.7974 40.781 22.8895 40.9893C22.9821 41.1967 23.0284 41.4271 23.0284 41.6788C23.0284 42.1649 22.8327 42.5629 22.4422 42.8724C22.2679 43.0102 22.0701 43.1154 21.8584 43.1829C21.6286 43.2565 21.3886 43.2932 21.1474 43.2916H18.831V39.9934H21.0381C21.3441 39.9934 21.6199 40.0337 21.8655 40.1142C22.1105 40.1947 22.3194 40.3085 22.492 40.4564V40.4559ZM21.9837 42.2373C22.1157 42.0758 22.1878 41.8737 22.188 41.6652C22.1891 41.5223 22.1612 41.3807 22.106 41.249C22.0531 41.1229 21.9748 41.0091 21.8759 40.9147C21.777 40.8204 21.6597 40.7474 21.5313 40.7005C21.3899 40.6469 21.2397 40.6203 21.0885 40.622H19.6301V42.6631H21.093C21.2656 42.6631 21.4317 42.6248 21.5912 42.5488C21.7444 42.4768 21.8788 42.3702 21.9837 42.2373Z" fill="black"/>
</svg>
