<svg viewBox="0 0 188 37" fill="#000" xmlns="http://www.w3.org/2000/svg"><path d="M18.439 0C8.227 0 0 8.306 0 18.5S8.321 37 18.533 37c10.212 0 18.533-8.306 18.533-18.5S28.651 0 18.44 0zM28.65 28.128s-3.971-1.416-10.212-1.416-10.212 1.416-10.212 1.416V8.872h.283s1.702 16.99 9.929 16.99c8.226 0 9.928-16.99 9.928-16.99h.284v19.256zm47.562-8.401h-4.727c0-2.076.945-3.21 2.363-3.21 1.513 0 2.364 1.228 2.364 3.21zm37.351 1.51l-.095 2.832c-.473.85-1.418 1.321-2.364 1.321-1.135 0-1.796-.66-1.796-1.887 0-.756.189-1.227.661-1.605.473-.472 1.419-.755 3.026-.755.189.094.378.094.568.094zm62.408-1.51h-4.634c.095-2.076.851-3.21 2.364-3.21 1.419 0 2.27 1.228 2.27 3.21zM66.568 26.901V10.57h-2.647v6.608h-6.146V10.57h-2.648v16.424h2.648v-7.646h6.146v7.646l2.648-.095zm12.388-5.38v-.473c0-2.642-.568-4.153-1.513-5.096-.851-.85-2.08-1.322-3.404-1.322-1.608 0-2.837.566-3.783 1.605-.945 1.038-1.513 2.548-1.513 4.625 0 3.87 2.175 6.324 5.674 6.324 1.702 0 3.215-.567 4.444-1.605l-1.04-1.51c-.946.755-1.986 1.133-3.12 1.133-1.135 0-2.08-.472-2.648-1.228-.378-.566-.473-1.415-.473-2.265v-.189h7.376zm8.604-6.702c-.283-.095-.567-.189-1.04-.189-1.324 0-2.27.755-3.12 1.888v-.189c0-.755-.19-1.133-.473-1.604l-2.459.66c.284.755.379 1.605.379 3.02v8.59h2.647v-8.023c.095-.66.284-.944.757-1.322.472-.471 1.04-.566 1.607-.566.284 0 .473.095.757.189l.945-2.454zM104.392 26.9v-8.779c0-1.321-.284-2.17-.946-2.737-.473-.472-1.418-.755-2.269-.755-1.324 0-2.743.66-3.783 1.793-.567-1.132-1.607-1.793-2.931-1.793-1.135 0-2.459.66-3.31 1.51a5.694 5.694 0 00-.472-1.51l-2.364.566c.378.755.473 1.228.473 2.926v8.684h2.553v-8.872c1.04-.85 1.89-1.227 2.647-1.227 1.04 0 1.419.566 1.419 1.887v8.212h2.553v-8.684c1.04-1.038 1.985-1.51 2.742-1.51.945 0 1.324.472 1.324 1.7v8.4h2.364v.189zm12.765-1.133c-.851-.567-1.135-1.038-1.135-2.454v-.378l.095-3.587v-.755c0-1.227-.095-1.604-.189-2.076-.473-1.322-1.797-1.982-3.688-1.982a8.29 8.29 0 00-3.31.66c-.662.284-1.324.567-1.985.944l1.134 1.794c.473-.378.851-.567 1.513-.85.851-.377 1.608-.566 2.27-.566.756 0 1.134.189 1.418.566.284.378.378.755.378 1.605v.85h-.851c-4.066 0-6.241 1.415-6.241 4.247 0 .944.284 1.982.946 2.548.756.66 1.607.944 3.12.944 1.04 0 1.891-.283 2.648-.755.284-.189.378-.378.756-.755.284.755.946 1.321 1.702 1.604l1.419-1.604zm11.63 1.133v-8.873c0-2.265-1.323-3.303-3.309-3.303-1.324 0-2.364.471-3.782 1.604 0-.566-.19-1.133-.473-1.604l-2.364.66c.378.85.378 1.416.378 2.832v8.872h2.553v-8.683c.851-.85 1.986-1.416 2.837-1.416 1.04 0 1.418.472 1.418 2.17v7.93h2.742v-.19zm20.047 0l-1.419-16.424h-3.688l-3.309 12.082-3.31-11.988h-3.782l-1.607 16.424h2.458l1.135-13.78 3.877 13.78h1.985l3.877-13.498 1.135 13.498h2.648V26.9zm5.295 0V14.63l-2.648.377v11.798h2.648v.095zm7.375 0l-.473-1.51h-.283c-.473 0-.851-.284-.851-1.133V12.93c0-1.51 0-2.643-.189-3.398l-2.648.567c.189.943.284 1.793.284 3.492v10.854c0 1.794 1.04 2.832 2.553 2.832.662-.094 1.134-.189 1.607-.377zm-6.902-15.48c0-.944-.757-1.7-1.797-1.7-.946 0-1.797.756-1.797 1.7s.851 1.699 1.702 1.699c1.135 0 1.892-.755 1.892-1.7zm12.954 15.48l-.473-1.51c-.378.094-.662 0-.851-.19-.189-.283-.284-.755-.284-1.887V12.93c0-1.51 0-2.643-.189-3.398l-2.647.567c.189.943.283 1.793.283 3.492v10.382c0 1.322.284 1.983.568 2.455.378.566 1.134.85 1.985.85a9.888 9.888 0 001.608-.378zm11.158-5.38v-.473c0-2.642-.568-4.153-1.513-5.096-.851-.85-2.08-1.322-3.499-1.322-1.513 0-2.742.566-3.782 1.605-.946 1.038-1.513 2.548-1.513 4.625 0 3.87 2.175 6.324 5.673 6.324 1.608 0 3.215-.567 4.445-1.605l-1.041-1.51c-.945.755-1.985 1.133-3.12 1.133s-2.08-.472-2.648-1.228c-.378-.566-.567-1.415-.567-2.265v-.189h7.565zm8.699-6.702c-.284-.095-.567-.189-1.04-.189-1.324 0-2.364.755-3.12 1.888v-.189c0-.755-.19-1.133-.473-1.604l-2.364.66c.283.755.378 1.605.378 3.02v8.59h2.648v-8.023c.094-.66.283-.944.756-1.322.473-.471 1.04-.566 1.608-.566.283 0 .472.095.756.189l.851-2.454z"></path></svg>
