<svg width="50" height="40" viewBox="0 0 50 40" fill="none" xmlns="http://www.w3.org/2000/svg">
<path d="M32.7482 3.12883C36.6372 3.12883 39.7902 19.5248 39.7902 39.7505H45.4251C45.4251 17.9685 39.7487 0.311333 32.7482 0.311333C28.7648 0.311333 25.2113 5.618 22.8875 13.9162C20.5647 5.618 17.0098 0.311333 13.027 0.311333C6.02649 0.311333 0.349319 17.9685 0.349319 39.7505H5.98499C5.98499 19.5248 9.13849 3.12883 13.027 3.12883C16.9167 3.12883 20.071 18.2637 20.071 36.9347H25.7047C25.7048 18.2637 28.8582 3.12883 32.7482 3.12883Z" fill="black"/>
<path d="M48.2458 36.9347C49.0102 36.9347 49.6508 37.5397 49.6508 38.336C49.6508 39.1447 49.0102 39.7503 48.2458 39.7503C47.4788 39.7503 46.8328 39.1445 46.8328 38.336C46.8328 37.5397 47.4788 36.9347 48.2458 36.9347ZM48.2458 39.5445C48.8932 39.5445 49.3958 39.0243 49.3958 38.3362C49.3958 37.6602 48.893 37.1407 48.2458 37.1407C47.5905 37.1407 47.0883 37.6602 47.0883 38.3362C47.0882 39.0243 47.5905 39.5445 48.2458 39.5445ZM47.698 37.5183H48.3327C48.7212 37.5183 48.9043 37.6728 48.9043 37.9883C48.9043 38.2858 48.7187 38.4102 48.4753 38.4358L48.9427 39.1638H48.6683L48.223 38.4558H47.9537V39.1638H47.6982V37.5183H47.698ZM47.9537 38.2492H48.2198C48.4438 38.2492 48.6505 38.238 48.6505 37.9772C48.6505 37.7583 48.4632 37.7242 48.2908 37.7242H47.9538V38.2492H47.9537Z" fill="black"/>
</svg>
