<svg xmlns="http://www.w3.org/2000/svg" fill="none" viewBox="0 0 189 27"><g clip-path="url(#clip0)"><path fill="#141518" d="M13.74 9.63c0-2.31-1.571-4.3-3.998-4.3h-3.96v8.599h3.96c2.427 0 3.998-1.989 3.998-4.299zM0 .64h10.456c5.532 0 9.1 4.158 9.1 8.99s-3.568 8.988-9.1 8.988H5.78v6.894H0V.64zm36.294 7.107l-3.07 10.233h6.067L36.294 7.747zm5.389 17.765l-.963-3.02h-8.886l-.964 3.02h-6.175L33.618.64h5.317l9.029 24.87h-6.281v.001zM57.67 5.615h-5.637V.64h17.093v4.974h-5.675v19.897h-5.78V5.615zM91.86 9.63c0-2.31-1.57-4.3-3.998-4.3H83.9v8.599h3.961c2.427 0 3.998-1.989 3.998-4.299zM78.119.64h10.493c5.53 0 9.1 4.158 9.1 8.99 0 3.482-1.856 6.572-4.962 8.03l4.998 7.852h-6.71l-4.426-6.893H83.9v6.893h-5.78V.64zm35.189 4.62v5.649h9.456v4.513h-9.456v5.47h9.456v4.62h-15.238V.64h15.238v4.62h-9.456zm39.398 7.816c0-4.086-2.784-7.887-7.316-7.887-4.568 0-7.316 3.801-7.316 7.887 0 4.086 2.748 7.888 7.316 7.888 4.532 0 7.316-3.802 7.316-7.888zm-20.557 0c0-6.821 4.926-13.075 13.241-13.075 8.279 0 13.204 6.254 13.204 13.075 0 6.822-4.925 13.076-13.204 13.076-8.315 0-13.241-6.254-13.241-13.076zm51.106 3.766V.641H189v24.87h-6.031l-8.994-15.988v15.989h-5.781V.64h6.03l9.031 16.201z"/></g><defs><clipPath id="clip0"><path fill="#fff" d="M0 0h189v26.151H0z"/></clipPath></defs></svg>